<svg xmlns="http://www.w3.org/2000/svg" xmlns:xlink="http://www.w3.org/1999/xlink" viewBox="0 0 916 939" width="916" height="939" preserveAspectRatio="xMidYMid meet" style="width: 100%; height: 100%; transform: translate3d(0px, 0px, 0px); content-visibility: visible;"><defs><clipPath id="__lottie_element_2975"><rect width="916" height="939" x="0" y="0"></rect></clipPath><clipPath id="__lottie_element_2977"><path d="M0,0 L916,0 L916,939 L0,939z"></path></clipPath><clipPath id="__lottie_element_2984"><path d="M0,0 L440,0 L440,476 L0,476z"></path></clipPath><clipPath id="__lottie_element_3052"><path d="M0,0 L645,0 L645,698 L0,698z"></path></clipPath></defs><g clip-path="url(#__lottie_element_2975)"><g clip-path="url(#__lottie_element_2977)" transform="matrix(1,0,0,1,0,0)" opacity="1" style="display: block;"><g transform="matrix(0.7799999713897705,0,0,0.7799999713897705,448.68719482421875,816.7784423828125)" opacity="0.3" style="display: block;"><g opacity="1" transform="matrix(4,0,0,4,0,0)"><path fill="rgb(175,175,175)" fill-opacity="1" d=" M0,37.946998596191406 C26.916000366210938,37.946998596191406 48.736000061035156,20.957000732421875 48.736000061035156,0 C48.736000061035156,-20.957000732421875 26.916000366210938,-37.946998596191406 0,-37.946998596191406 C-26.916000366210938,-37.946998596191406 -48.736000061035156,-20.957000732421875 -48.736000061035156,0 C-48.736000061035156,20.957000732421875 -26.916000366210938,37.946998596191406 0,37.946998596191406z" data-darkreader-inline-fill="" style="--darkreader-inline-fill: #454b4e;"></path></g></g><g transform="matrix(0.7799999713897705,0,0,0.7799999713897705,395.2969665527344,860.34375)" opacity="1" style="display: block;"><g opacity="1" transform="matrix(3.145714282989502,2.4707248210906982,-2.4707248210906982,3.145714282989502,0,0)"><path fill="rgb(244,144,0)" fill-opacity="1" d=" M0,-9.579999923706055 C-3.947999954223633,-9.579999923706055 -7.14900016784668,-6.379000186920166 -7.14900016784668,-2.430999994277954 C-7.14900016784668,-2.430999994277954 -7.14900016784668,2.430999994277954 -7.14900016784668,2.430999994277954 C-7.14900016784668,6.379000186920166 -3.947999954223633,9.579999923706055 0,9.579999923706055 C3.947999954223633,9.579999923706055 7.14900016784668,6.379000186920166 7.14900016784668,2.430999994277954 C7.14900016784668,2.430999994277954 7.14900016784668,-2.430999994277954 7.14900016784668,-2.430999994277954 C7.14900016784668,-6.379000186920166 3.947999954223633,-9.579999923706055 0,-9.579999923706055z" data-darkreader-inline-fill="" style="--darkreader-inline-fill: #ffa421;"></path></g></g><g transform="matrix(-0.7799999713897705,0,0,0.7799999713897705,501.3785095214844,859.850830078125)" opacity="1" style="display: block;"><g opacity="1" transform="matrix(3.145714282989502,2.4707248210906982,-2.4707248210906982,3.145714282989502,0,0)"><path fill="rgb(244,144,0)" fill-opacity="1" d=" M0,-9.579999923706055 C-3.947999954223633,-9.579999923706055 -7.14900016784668,-6.379000186920166 -7.14900016784668,-2.430999994277954 C-7.14900016784668,-2.430999994277954 -7.14900016784668,2.430999994277954 -7.14900016784668,2.430999994277954 C-7.14900016784668,6.379000186920166 -3.947999954223633,9.579999923706055 0,9.579999923706055 C3.947999954223633,9.579999923706055 7.14900016784668,6.379000186920166 7.14900016784668,2.430999994277954 C7.14900016784668,2.430999994277954 7.14900016784668,-2.430999994277954 7.14900016784668,-2.430999994277954 C7.14900016784668,-6.379000186920166 3.947999954223633,-9.579999923706055 0,-9.579999923706055z" data-darkreader-inline-fill="" style="--darkreader-inline-fill: #ffa421;"></path></g></g><g transform="matrix(0.7799150347709656,0.07424889504909515,-0.07359660416841507,0.7730633020401001,463.0966796875,724.0413818359375)" opacity="1" style="display: block;"><g opacity="1" transform="matrix(4,0,0,4,0,0)"><path fill="rgb(88,204,2)" fill-opacity="1" d=" M0,-46.176998138427734 C-5.4029998779296875,-46.176998138427734 -9.465999603271484,-47.09600067138672 -13.343999862670898,-48.479000091552734 C-16.884000778198242,-49.74100112915039 -20.270999908447266,-50.948001861572266 -24.381000518798828,-50.948001861572266 C-38.1609992980957,-50.948001861572266 -42.577999114990234,-35.48899841308594 -42.4010009765625,-30.40999984741211 C-42.4010009765625,-30.40999984741211 -42.4010009765625,5.763999938964844 -42.4010009765625,5.763999938964844 C-42.4010009765625,41.0629997253418 -13.692000389099121,50.595001220703125 0,50.948001861572266 C13.692000389099121,50.595001220703125 42.4010009765625,41.0629997253418 42.4010009765625,5.763999938964844 C42.4010009765625,5.763999938964844 42.4010009765625,-30.40999984741211 42.4010009765625,-30.40999984741211 C42.577999114990234,-35.48899841308594 38.1609992980957,-50.948001861572266 24.381000518798828,-50.948001861572266 C20.270999908447266,-50.948001861572266 16.884000778198242,-49.74100112915039 13.343999862670898,-48.479000091552734 C9.465999603271484,-47.09600067138672 5.4029998779296875,-46.176998138427734 0,-46.176998138427734z" data-darkreader-inline-fill="" style="--darkreader-inline-fill: #46a302;"></path></g></g><g transform="matrix(0.5076075792312622,0.5923617482185364,-0.5966728329658508,0.5022422671318054,337.16864013671875,713.1573486328125)" opacity="1" style="display: block;"><g opacity="1" transform="matrix(3.6737303733825684,1.5823101997375488,-1.5823101997375488,3.6737303733825684,0,0)"><path fill="rgb(88,204,2)" fill-opacity="1" d=" M-14.824000358581543,10.439000129699707 C-17.63599967956543,16.549999237060547 -6.697000026702881,19.78499984741211 2.7890000343322754,18.66200065612793 C11.612000465393066,17.618000030517578 23.1560001373291,9.25100040435791 25.900999069213867,5.502999782562256 C25.900999069213867,5.502999782562256 47.07699966430664,-25.520000457763672 47.07699966430664,-25.520000457763672 C47.07699966430664,-25.520000457763672 12.937999725341797,-47.82600021362305 12.937999725341797,-47.82600021362305 C12.937999725341797,-47.82600021362305 -12.01200008392334,4.328000068664551 -14.824000358581543,10.439000129699707z" data-darkreader-inline-fill="" style="--darkreader-inline-fill: #46a302;"></path></g><g opacity="1" transform="matrix(1,0,0,1,0,0)"><path fill="rgb(88,204,2)" fill-opacity="1" d=" M-167.72300720214844,193.1580047607422" data-darkreader-inline-fill="" style="--darkreader-inline-fill: #8ffd3e;"></path><path stroke-linecap="butt" stroke-linejoin="miter" fill-opacity="0" stroke-miterlimit="4" stroke="rgb(22,103,3)" stroke-opacity="1" stroke-width="17" d=" M-167.72300720214844,193.1580047607422" data-darkreader-inline-stroke="" style="--darkreader-inline-stroke: #9cfb85;"></path></g></g><g transform="matrix(-0.7260563969612122,-0.2928132116794586,-0.2941531240940094,0.7193053364753723,573.9989624023438,791.8819580078125)" opacity="1" style="display: block;"><g opacity="1" transform="matrix(3.6737303733825684,1.5823101997375488,-1.5823101997375488,3.6737303733825684,1,0)"><path fill="rgb(88,204,2)" fill-opacity="1" d=" M-14.824000358581543,10.439000129699707 C-17.63599967956543,16.549999237060547 -5.091000080108643,21.649999618530273 4.03000020980835,18.81100082397461 C11.668000221252441,16.433000564575195 21.36400032043457,11.291000366210938 22.465999603271484,8.623000144958496 C22.465999603271484,8.623000144958496 53.209999084472656,-27.95800018310547 53.209999084472656,-27.95800018310547 C53.209999084472656,-27.95800018310547 12.937999725341797,-47.82600021362305 12.937999725341797,-47.82600021362305 C12.937999725341797,-47.82600021362305 -12.01200008392334,4.328000068664551 -14.824000358581543,10.439000129699707z" data-darkreader-inline-fill="" style="--darkreader-inline-fill: #46a302;"></path></g></g><g transform="matrix(-0.7867969274520874,-0.07490406930446625,-0.0729471817612648,0.7662417888641357,422.61895751953125,830.322509765625)" opacity="1" style="display: block;"><g opacity="1" transform="matrix(3.8082187175750732,1.2237117290496826,-1.2237117290496826,3.8082187175750732,-76,0)"><path fill="rgb(142,224,0)" fill-opacity="1" d=" M4.998000144958496,-2.73799991607666 C4.998000144958496,-2.73799991607666 -5.2769999504089355,-1.0479999780654907 -5.2769999504089355,-1.0479999780654907 C-5.828000068664551,-0.9570000171661377 -6.125,-0.4339999854564667 -5.864999771118164,-0.014000000432133675 C-4.61299991607666,2.003000020980835 -1.937000036239624,3.0989999771118164 0.777999997138977,2.6519999504089355 C3.493000030517578,2.2049999237060547 5.570000171661377,0.328000009059906 5.952000141143799,-1.9579999446868896 C6.0320000648498535,-2.434000015258789 5.548999786376953,-2.8289999961853027 4.998000144958496,-2.73799991607666z" data-darkreader-inline-fill="" style="--darkreader-inline-fill: #b3ff2f;"></path></g><g opacity="1" transform="matrix(3.9136900901794434,-0.8264561891555786,0.8264561891555786,3.9136900901794434,-35.5,26.5)"><path fill="rgb(137,226,25)" fill-opacity="1" d=" M-4.710999965667725,-2.2699999809265137 C-0.8410000205039978,-1.4739999771118164 0.621999979019165,-1.1440000534057617 4.535999774932861,-0.3179999887943268 C7.960000038146973,0.4050000011920929 3.328000068664551,2.9830000400543213 -0.5860000252723694,2.1570000648498535 C-4.5,1.3309999704360962 -7.339000225067139,-2.811000108718872 -4.710999965667725,-2.2699999809265137z" data-darkreader-inline-fill="" style="--darkreader-inline-fill: #98e833;"></path></g><g opacity="1" transform="matrix(3.997220754623413,0.1490863859653473,-0.1490863859653473,3.997220754623413,0,0)"><path fill="rgb(142,224,0)" fill-opacity="1" d=" M4.998000144958496,-2.73799991607666 C4.998000144958496,-2.73799991607666 -5.2769999504089355,-1.0479999780654907 -5.2769999504089355,-1.0479999780654907 C-5.828000068664551,-0.9570000171661377 -6.125,-0.4339999854564667 -5.864999771118164,-0.014000000432133675 C-4.61299991607666,2.003000020980835 -1.937000036239624,3.0989999771118164 0.777999997138977,2.6519999504089355 C3.493000030517578,2.2049999237060547 5.570000171661377,0.328000009059906 5.952000141143799,-1.9579999446868896 C6.0320000648498535,-2.434000015258789 5.548999786376953,-2.8289999961853027 4.998000144958496,-2.73799991607666z" data-darkreader-inline-fill="" style="--darkreader-inline-fill: #b3ff2f;"></path></g></g><g clip-path="url(#__lottie_element_3052)" transform="matrix(0.7799150347709656,0.07424889504909515,-0.07359660416841507,0.7730633020401001,234.6275634765625,446.59228515625)" opacity="0" style="display: block;"><g transform="matrix(1,0,0,1,419.072998046875,246.62100219726562)" opacity="1" style="display: block;"><g opacity="1" transform="matrix(4,0,0,4,0,0)"><path fill="rgb(137,226,25)" fill-opacity="1" d=" M-8.312000274658203,5.785999774932861 C-8.312000274658203,5.785999774932861 4.758999824523926,-8.765000343322754 4.758999824523926,-8.765000343322754 C5.499000072479248,-9.505000114440918 6.73199987411499,-9.42199993133545 7.14300012588501,-8.435999870300293 C9.690999984741211,-4.078999996185303 9.116000175476074,1.4290000200271606 5.663000106811523,5.293000221252441 C2.2100000381469727,9.156999588012695 -3.2149999141693115,10.307000160217285 -7.818999767303467,8.251999855041504 C-8.722999572753906,7.758999824523926 -9.052000045776367,6.526000022888184 -8.312000274658203,5.785999774932861z" data-darkreader-inline-fill="" style="--darkreader-inline-fill: #98e833;"></path></g></g><g transform="matrix(1,0,0,1,388.8210144042969,232.63099670410156)" opacity="1" style="display: block;"><g opacity="1" transform="matrix(4,0,0,4,0,0)"><path fill="rgb(137,226,25)" fill-opacity="1" d=" M-8.312000274658203,5.748000144958496 C-8.312000274658203,5.748000144958496 4.758999824523926,-8.720000267028809 4.758999824523926,-8.720000267028809 C5.416999816894531,-9.460000038146973 6.650000095367432,-9.376999855041504 7.14300012588501,-8.472999572753906 C9.690999984741211,-4.116000175476074 9.116000175476074,1.3910000324249268 5.663000106811523,5.255000114440918 C2.2100000381469727,9.119000434875488 -3.2149999141693115,10.269000053405762 -7.818999767303467,8.21399974822998 C-8.722999572753906,7.7210001945495605 -9.052000045776367,6.48799991607666 -8.312000274658203,5.748000144958496z" data-darkreader-inline-fill="" style="--darkreader-inline-fill: #98e833;"></path></g></g><g transform="matrix(1,0,0,1,260.8030090332031,232.63099670410156)" opacity="1" style="display: block;"><g opacity="1" transform="matrix(4,0,0,4,0,0)"><path fill="rgb(137,226,25)" fill-opacity="1" d=" M8.319999694824219,5.748000144958496 C8.319999694824219,5.748000144958496 -4.997000217437744,-8.720000267028809 -4.997000217437744,-8.720000267028809 C-5.736999988555908,-9.460000038146973 -6.642000198364258,-9.376999855041504 -7.2170000076293945,-8.472999572753906 C-9.682999610900879,-4.116000175476074 -9.107999801635742,1.3910000324249268 -5.65500020980835,5.255000114440918 C-2.2019999027252197,9.119000434875488 3.2230000495910645,10.269000053405762 7.827000141143799,8.21399974822998 C8.730999946594238,7.7210001945495605 9.0600004196167,6.48799991607666 8.319999694824219,5.748000144958496z" data-darkreader-inline-fill="" style="--darkreader-inline-fill: #98e833;"></path></g></g><g transform="matrix(1,0,0,1,230.25599670410156,246.62100219726562)" opacity="1" style="display: block;"><g opacity="1" transform="matrix(4,0,0,4,0,0)"><path fill="rgb(137,226,25)" fill-opacity="1" d=" M8.312000274658203,5.785999774932861 C8.312000274658203,5.785999774932861 -4.677000045776367,-8.765000343322754 -4.677000045776367,-8.765000343322754 C-5.416999816894531,-9.505000114440918 -6.650000095367432,-9.42199993133545 -7.14300012588501,-8.435999870300293 C-9.690999984741211,-4.078999996185303 -9.116000175476074,1.4290000200271606 -5.663000106811523,5.293000221252441 C-2.2100000381469727,9.156999588012695 3.2149999141693115,10.307000160217285 7.818999767303467,8.251999855041504 C8.722999572753906,7.758999824523926 9.052000045776367,6.526000022888184 8.312000274658203,5.785999774932861z" data-darkreader-inline-fill="" style="--darkreader-inline-fill: #98e833;"></path></g></g><g transform="matrix(1,0,0,1,236.572998046875,314.35101318359375)" opacity="1" style="display: block;"><g opacity="1" transform="matrix(1,0,0,1,0,0)"><path fill="rgb(137,226,25)" fill-opacity="1" d=" M-70.90799713134766,-13.692000389099121 C-75.87799835205078,-57.19200134277344 -55.24399948120117,-87.43399810791016 -9.225000381469727,-87.43399810791016 C36.27199935913086,-87.43399810791016 71.63200378417969,-57.222999572753906 71.63200378417969,-21.10300064086914 C71.63200378417969,-21.10300064086914 71.63200378417969,19.156999588012695 71.63200378417969,19.156999588012695 C71.63200378417969,53.04899978637695 44.62900161743164,87.43399810791016 6.448999881744385,87.43399810791016 C-25.702999114990234,87.43399810791016 -62.63800048828125,58.5880012512207 -66.3280029296875,26.308000564575195 C-66.3280029296875,26.308000564575195 -70.90799713134766,-13.692000389099121 -70.90799713134766,-13.692000389099121z" data-darkreader-inline-fill="" style="--darkreader-inline-fill: #6eb514;"></path></g></g><g transform="matrix(1,0,0,1,412.6549987792969,314.35101318359375)" opacity="1" style="display: block;"><g opacity="1" transform="matrix(1,0,0,1,0,0)"><path fill="rgb(137,226,25)" fill-opacity="1" d=" M70.90799713134766,-13.692000389099121 C75.87799835205078,-57.19200134277344 55.24399948120117,-87.43399810791016 9.225000381469727,-87.43399810791016 C-36.27199935913086,-87.43399810791016 -71.63200378417969,-57.222999572753906 -71.63200378417969,-21.10300064086914 C-71.63200378417969,-21.10300064086914 -71.63200378417969,19.156999588012695 -71.63200378417969,19.156999588012695 C-71.63200378417969,53.04899978637695 -44.62900161743164,87.43399810791016 -6.448999881744385,87.43399810791016 C25.702999114990234,87.43399810791016 62.63800048828125,58.5880012512207 66.3280029296875,26.308000564575195 C66.3280029296875,26.308000564575195 70.90799713134766,-13.692000389099121 70.90799713134766,-13.692000389099121z" data-darkreader-inline-fill="" style="--darkreader-inline-fill: #6eb514;"></path></g></g><g transform="matrix(1,0,0,1,324.7799987792969,304.1260070800781)" opacity="1" style="display: block;"><g opacity="1" transform="matrix(1,0,0,1,0,0)"><path fill="rgb(137,226,25)" fill-opacity="1" d=" M-37.479000091552734,-55.619998931884766 C-18.07900047302246,-35.900001525878906 16.121000289916992,-35.900001525878906 37.49100112915039,-55.619998931884766 C58.861000061035156,-75.3499984741211 34.20100021362305,58.810001373291016 34.20100021362305,58.150001525878906 C34.20100021362305,58.150001525878906 22.69099998474121,57.81999969482422 -0.3190000057220459,58.150001525878906 C-6.568999767303467,58.150001525878906 -17.749000549316406,58.150001525878906 -33.53900146484375,58.150001525878906 C-48.98899841308594,-30.6299991607666 -50.308998107910156,-68.77999877929688 -37.479000091552734,-55.619998931884766z" data-darkreader-inline-fill="" style="--darkreader-inline-fill: #6eb514;"></path></g></g><g transform="matrix(1,0,0,1,236.4739990234375,317.2309875488281)" opacity="1" style="display: block;"><g opacity="1" transform="matrix(1,0,0,1,0,0)"><path fill="rgb(255,255,255)" fill-opacity="1" d=" M-47.49700164794922,-8.77400016784668 C-52.584999084472656,-37.96699905395508 -38.722999572753906,-61.41699981689453 -8.98900032043457,-61.41699981689453 C22.69499969482422,-61.41699981689453 48.52899932861328,-35.80799865722656 48.52899932861328,-12.538000106811523 C48.52899932861328,-12.538000106811523 48.52899932861328,19.985000610351562 48.52899932861328,19.985000610351562 C48.52899932861328,42.89500045776367 32.44300079345703,61.41699981689453 11.970999717712402,61.41699981689453 C-14.35099983215332,61.41699981689453 -36.69200134277344,42.321998596191406 -41.15999984741211,19.985000610351562 C-41.15999984741211,19.985000610351562 -47.49700164794922,-8.77400016784668 -47.49700164794922,-8.77400016784668z" data-darkreader-inline-fill="" style="--darkreader-inline-fill: #181a1b;"></path></g></g><g transform="matrix(1,0,0,1,412.6549987792969,317.2309875488281)" opacity="1" style="display: block;"><g opacity="1" transform="matrix(1,0,0,1,0,0)"><path fill="rgb(255,255,255)" fill-opacity="1" d=" M47.49700164794922,-8.77400016784668 C52.584999084472656,-37.96699905395508 38.722999572753906,-61.41699981689453 8.98900032043457,-61.41699981689453 C-22.69499969482422,-61.41699981689453 -48.52899932861328,-35.80799865722656 -48.52899932861328,-12.538000106811523 C-48.52899932861328,-12.538000106811523 -48.52899932861328,19.985000610351562 -48.52899932861328,19.985000610351562 C-48.52899932861328,42.89500045776367 -32.44300079345703,61.41699981689453 -11.970999717712402,61.41699981689453 C14.35099983215332,61.41699981689453 36.69200134277344,42.321998596191406 41.15999984741211,19.985000610351562 C41.15999984741211,19.985000610351562 47.49700164794922,-8.77400016784668 47.49700164794922,-8.77400016784668z" data-darkreader-inline-fill="" style="--darkreader-inline-fill: #181a1b;"></path></g></g><g transform="matrix(1,0,0,1,250.5,314.5)" opacity="1" style="display: block;"><g opacity="1" transform="matrix(1,0,0,1,0,0)"><path fill="rgb(75,75,75)" fill-opacity="1" d=" M-23.062999725341797,-5.854000091552734 C-14.895000457763672,-6.046000003814697 -8.42300033569336,-12.829000473022461 -8.614999771118164,-20.996999740600586 C-8.718999862670898,-25.437999725341797 -10.772000312805176,-29.378000259399414 -13.937000274658203,-32.018001556396484 C-10.258000373840332,-34.41699981689453 -5.876999855041504,-35.86199951171875 -1.121999979019165,-35.9739990234375 C12.434000015258789,-36.29199981689453 23.68899917602539,-25.55299949645996 24.006999969482422,-11.996999740600586 C24.006999969482422,-11.996999740600586 24.576000213623047,12.215999603271484 24.576000213623047,12.215999603271484 C24.87700080871582,25.031999588012695 14.732999801635742,35.67399978637695 1.906999945640564,35.974998474121094 C-9.920000076293945,36.25299835205078 -20.05500030517578,27.58799934387207 -21.641000747680664,15.862000465393066 C-21.641000747680664,15.862000465393066 -24.582000732421875,-5.894999980926514 -24.582000732421875,-5.894999980926514 C-24.082000732421875,-5.855999946594238 -23.575000762939453,-5.8420000076293945 -23.062999725341797,-5.854000091552734z" data-darkreader-inline-fill="" style="--darkreader-inline-fill: #b9b3a9;"></path></g></g><g transform="matrix(1,0,0,1,394.88299560546875,314.5979919433594)" opacity="1" style="display: block;"><g opacity="1" transform="matrix(1,0,0,1,0,0)"><path fill="rgb(75,75,75)" fill-opacity="1" d=" M-22.961999893188477,-9.166999816894531 C-14.85200023651123,-8.180000305175781 -7.46999979019165,-13.961000442504883 -6.482999801635742,-22.070999145507812 C-5.946000099182129,-26.481000900268555 -7.410999774932861,-30.674999237060547 -10.161999702453613,-33.74300003051758 C-6.175000190734863,-35.58700180053711 -1.6330000162124634,-36.387001037597656 3.0889999866485596,-35.8120002746582 C16.549999237060547,-34.17399978637695 26.139999389648438,-21.926000595092773 24.50200080871582,-8.46500015258789 C24.50200080871582,-8.46500015258789 21.57699966430664,15.57699966430664 21.57699966430664,15.57699966430664 C20.027999877929688,28.30299949645996 8.458000183105469,37.37300109863281 -4.2779998779296875,35.823001861572266 C-16.020999908447266,34.39400100708008 -24.80299949645996,24.358999252319336 -24.683000564575195,12.527000427246094 C-24.683000564575195,12.527000427246094 -24.458999633789062,-9.425999641418457 -24.458999633789062,-9.425999641418457 C-23.969999313354492,-9.3149995803833 -23.47100067138672,-9.229000091552734 -22.961999893188477,-9.166999816894531z" data-darkreader-inline-fill="" style="--darkreader-inline-fill: #b9b3a9;"></path></g></g><g transform="matrix(0.9925461411476135,0.12186934053897858,-0.12186934053897858,0.9925461411476135,278.050048828125,275.9627380371094)" opacity="1" style="display: block;"><path fill="rgb(137,226,25)" fill-opacity="1" d=" M191.6580047607422,52.297000885009766 C191.6580047607422,52.297000885009766 152.88099670410156,145.99400329589844 57.24800109863281,53.97999954223633 C-27.840999603271484,175.74000549316406 -79,72.88800048828125 -79,72.88800048828125 C-79,72.88800048828125 -52.6349983215332,132.00900268554688 1.0010000467300415,109.41000366210938 C39.612998962402344,93.14099884033203 56.69300079345703,50.499000549316406 56.69300079345703,50.499000549316406 C56.69300079345703,50.499000549316406 96.95099639892578,110.41000366210938 149.58700561523438,94.81099700927734 C186.6230010986328,83.83499908447266 191.6580047607422,52.297000885009766 191.6580047607422,52.297000885009766z M147.5,-47 C100.36399841308594,-55.53099822998047 83.0469970703125,-11.678000450134277 58,-7 C23.36400032043457,-0.531000018119812 11.86400032043457,-28.5310001373291 -34,-26.5 C-88.48300170898438,-24.086999893188477 -87.5,20.5 -87.5,20.5 C-87.5,20.5 -85.13600158691406,-54.53099822998047 52.5,-5.5 C139.36399841308594,-72.53099822998047 179.22300720214844,-24.98900032043457 179.22300720214844,-24.98900032043457 C179.22300720214844,-24.98900032043457 180.28799438476562,-41.066001892089844 147.5,-47z" data-darkreader-inline-fill="" style="--darkreader-inline-fill: #6eb514;"></path></g><g transform="matrix(1,0,0,1,322,348)" opacity="1" style="display: block;"><g opacity="1" transform="matrix(1,0,0,1,14.76200008392334,-37.80699920654297)"><path fill="rgb(244,144,0)" fill-opacity="1" d=" M-12.27400016784668,27.406999588012695 C2.2019999027252197,27.201000213623047 13.994000434875488,39.07400131225586 13.994000434875488,53.78499984741211 C13.994000434875488,68.49600219726562 2.431999921798706,80.71199798583984 -12.258000373840332,80.74199676513672 C-26.74799919128418,80.76599884033203 -38.47999954223633,68.84600067138672 -38.47999954223633,54.1349983215332 C-38.47999954223633,39.42399978637695 -26.738000869750977,27.610000610351562 -12.27400016784668,27.406999588012695z" data-darkreader-inline-fill="" style="--darkreader-inline-fill: #ffa421;"></path></g></g><g transform="matrix(1.040002703666687,0,0,0.469996839761734,321.9080505371094,351.7244567871094)" opacity="1" style="display: block;"><g opacity="1" transform="matrix(1.010740041732788,0,0,1,2.4955787658691406,21.654998779296875)"><path fill="rgb(244,144,0)" fill-opacity="1" d=" M24.102500915527344,-7.368999481201172 C24.102500915527344,-7.368999481201172 24.102500915527344,7.368999481201172 24.102500915527344,7.368999481201172 C24.102500915527344,20.67116928100586 13.302169799804688,31.471500396728516 0,31.471500396728516 C0,31.471500396728516 0,31.471500396728516 0,31.471500396728516 C-13.302169799804688,31.471500396728516 -24.102500915527344,20.67116928100586 -24.102500915527344,7.368999481201172 C-24.102500915527344,7.368999481201172 -24.102500915527344,-7.368999481201172 -24.102500915527344,-7.368999481201172 C-24.102500915527344,-20.67116928100586 -13.302169799804688,-31.471500396728516 0,-31.471500396728516 C0,-31.471500396728516 0,-31.471500396728516 0,-31.471500396728516 C13.302169799804688,-31.471500396728516 24.102500915527344,-20.67116928100586 24.102500915527344,-7.368999481201172z" data-darkreader-inline-fill="" style="--darkreader-inline-fill: #ffa421;"></path></g></g><g transform="matrix(0.7499979138374329,0,0,0.4426289200782776,323.1661376953125,352.7581787109375)" opacity="1" style="display: block;"><g opacity="1" transform="matrix(1,0,0,1,2.315000057220459,14.253000259399414)"><path fill="rgb(169,102,6)" fill-opacity="1" d=" M25.065500259399414,-5.496500015258789 C25.065500259399414,-5.496500015258789 25.065500259399414,5.496500015258789 25.065500259399414,5.496500015258789 C25.065500259399414,18.190200805664062 14.759200096130371,28.49650001525879 2.065500259399414,28.49650001525879 C2.065500259399414,28.49650001525879 -2.065500259399414,28.49650001525879 -2.065500259399414,28.49650001525879 C-14.759200096130371,28.49650001525879 -25.065500259399414,18.190200805664062 -25.065500259399414,5.496500015258789 C-25.065500259399414,5.496500015258789 -25.065500259399414,-5.496500015258789 -25.065500259399414,-5.496500015258789 C-25.065500259399414,-18.190200805664062 -14.759200096130371,-28.49650001525879 -2.065500259399414,-28.49650001525879 C-2.065500259399414,-28.49650001525879 2.065500259399414,-28.49650001525879 2.065500259399414,-28.49650001525879 C14.759200096130371,-28.49650001525879 25.065500259399414,-18.190200805664062 25.065500259399414,-5.496500015258789z" data-darkreader-inline-fill="" style="--darkreader-inline-fill: #f9b757;"></path></g></g><g transform="matrix(0.9100000262260437,0,0,0.9100000262260437,335.99993896484375,316.5003662109375)" opacity="1" style="display: block;"><g opacity="1" transform="matrix(1,0,0,1,0,0)"><path fill="rgb(176,104,0)" fill-opacity="1" d=" M-11.342000007629395,41.5 C-4.829999923706055,41.5 5.519999980926514,50.777000427246094 4.953999996185303,57.387001037597656 C4.593999862670898,61.5890007019043 -2.5239999294281006,63.55500030517578 -12.404999732971191,62.65399932861328 C-21.40399932861328,61.83399963378906 -32.39500045776367,59.10900115966797 -29.131000518798828,52.7760009765625 C-26.091999053955078,46.87900161743164 -17.854000091552734,41.5 -11.342000007629395,41.5z" data-darkreader-inline-fill="" style="--darkreader-inline-fill: #ffb851;"></path></g><g opacity="1" transform="matrix(1,0,0,1,-2,0)"><path fill="rgb(255,194,0)" fill-opacity="1" d=" M23.288999557495117,48.382999420166016 C23.288999557495117,37.54800033569336 6.650000095367432,23.746999740600586 -11.149999618530273,23.746999740600586 C-31.91699981689453,23.746999740600586 -44.55699920654297,39.61199951171875 -44.55699920654297,48.382999420166016 C-44.55699920654297,53.67100143432617 -19.92099952697754,70.95500183105469 -11.149999618530273,70.95500183105469 C-2.378999948501587,70.95500183105469 23.288999557495117,51.22100067138672 23.288999557495117,48.382999420166016z" data-darkreader-inline-fill="" style="--darkreader-inline-fill: #ffc81a;"></path></g><g opacity="1" transform="matrix(1,0,0,1,-2,0)"><path stroke-linecap="round" stroke-linejoin="miter" fill-opacity="0" stroke-miterlimit="4" stroke="rgb(255,222,0)" stroke-opacity="1" stroke-width="15.445" d=" M-19.034000396728516,39.60599899291992 C-16.511999130249023,38.066001892089844 -9.932000160217285,36.09400177001953 -4.074999809265137,38.98400115966797" data-darkreader-inline-stroke="" style="--darkreader-inline-stroke: #ffe11a;"></path></g></g></g><g clip-path="url(#__lottie_element_2984)" transform="matrix(0.7799150347709656,0.07424889504909515,-0.07359660416841507,0.7730633020401001,306.399658203125,540.0128173828125)" opacity="1" style="display: block;"><g transform="matrix(1,0,0,1,221.83200073242188,193.01300048828125)" opacity="1" style="display: block;"><g opacity="1" transform="matrix(4,0,0,4,0,0)"><path fill="rgb(137,226,25)" fill-opacity="1" d=" M9.371999740600586,-13.906000137329102 C4.0289998054504395,-8.973999977111816 -4.520999908447266,-8.973999977111816 -9.371000289916992,-13.906000137329102 C-12.57699966430664,-17.194000244140625 -12.248000144958496,-7.6579999923706055 -8.383999824523926,14.538000106811523 C-4.438000202178955,14.538000106811523 -1.6430000066757202,14.538000106811523 -0.08100000023841858,14.538000106811523 C5.672999858856201,14.456000328063965 8.550000190734863,14.538000106811523 8.550000190734863,14.538000106811523 C8.550000190734863,14.70199966430664 14.71500015258789,-18.83799934387207 9.371999740600586,-13.906000137329102z" data-darkreader-inline-fill="" style="--darkreader-inline-fill: #6eb514;"></path></g></g><g transform="matrix(1,0,0,1,316.572998046875,135.62100219726562)" opacity="1" style="display: block;"><g opacity="1" transform="matrix(4,0,0,4,0,0)"><path fill="rgb(137,226,25)" fill-opacity="1" d=" M-8.312000274658203,5.785999774932861 C-8.312000274658203,5.785999774932861 4.758999824523926,-8.765000343322754 4.758999824523926,-8.765000343322754 C5.499000072479248,-9.505000114440918 6.73199987411499,-9.42199993133545 7.14300012588501,-8.435999870300293 C9.690999984741211,-4.078999996185303 9.116000175476074,1.4290000200271606 5.663000106811523,5.293000221252441 C2.2100000381469727,9.156999588012695 -3.2149999141693115,10.307000160217285 -7.818999767303467,8.251999855041504 C-8.722999572753906,7.758999824523926 -9.052000045776367,6.526000022888184 -8.312000274658203,5.785999774932861z" data-darkreader-inline-fill="" style="--darkreader-inline-fill: #98e833;"></path></g></g><g transform="matrix(1,0,0,1,286.3210144042969,121.63099670410156)" opacity="1" style="display: block;"><g opacity="1" transform="matrix(4,0,0,4,0,0)"><path fill="rgb(137,226,25)" fill-opacity="1" d=" M-8.312000274658203,5.748000144958496 C-8.312000274658203,5.748000144958496 4.758999824523926,-8.720000267028809 4.758999824523926,-8.720000267028809 C5.416999816894531,-9.460000038146973 6.650000095367432,-9.376999855041504 7.14300012588501,-8.472999572753906 C9.690999984741211,-4.116000175476074 9.116000175476074,1.3910000324249268 5.663000106811523,5.255000114440918 C2.2100000381469727,9.119000434875488 -3.2149999141693115,10.269000053405762 -7.818999767303467,8.21399974822998 C-8.722999572753906,7.7210001945495605 -9.052000045776367,6.48799991607666 -8.312000274658203,5.748000144958496z" data-darkreader-inline-fill="" style="--darkreader-inline-fill: #98e833;"></path></g></g><g transform="matrix(1,0,0,1,158.30299377441406,121.63099670410156)" opacity="1" style="display: block;"><g opacity="1" transform="matrix(4,0,0,4,0,0)"><path fill="rgb(137,226,25)" fill-opacity="1" d=" M8.319999694824219,5.748000144958496 C8.319999694824219,5.748000144958496 -4.997000217437744,-8.720000267028809 -4.997000217437744,-8.720000267028809 C-5.736999988555908,-9.460000038146973 -6.642000198364258,-9.376999855041504 -7.2170000076293945,-8.472999572753906 C-9.682999610900879,-4.116000175476074 -9.107999801635742,1.3910000324249268 -5.65500020980835,5.255000114440918 C-2.2019999027252197,9.119000434875488 3.2230000495910645,10.269000053405762 7.827000141143799,8.21399974822998 C8.730999946594238,7.7210001945495605 9.0600004196167,6.48799991607666 8.319999694824219,5.748000144958496z" data-darkreader-inline-fill="" style="--darkreader-inline-fill: #98e833;"></path></g></g><g transform="matrix(1,0,0,1,127.75599670410156,135.62100219726562)" opacity="1" style="display: block;"><g opacity="1" transform="matrix(4,0,0,4,0,0)"><path fill="rgb(137,226,25)" fill-opacity="1" d=" M8.312000274658203,5.785999774932861 C8.312000274658203,5.785999774932861 -4.677000045776367,-8.765000343322754 -4.677000045776367,-8.765000343322754 C-5.416999816894531,-9.505000114440918 -6.650000095367432,-9.42199993133545 -7.14300012588501,-8.435999870300293 C-9.690999984741211,-4.078999996185303 -9.116000175476074,1.4290000200271606 -5.663000106811523,5.293000221252441 C-2.2100000381469727,9.156999588012695 3.2149999141693115,10.307000160217285 7.818999767303467,8.251999855041504 C8.722999572753906,7.758999824523926 9.052000045776367,6.526000022888184 8.312000274658203,5.785999774932861z" data-darkreader-inline-fill="" style="--darkreader-inline-fill: #98e833;"></path></g></g><g transform="matrix(1,0,0,1,309.4259948730469,207.14999389648438)" opacity="1" style="display: block;"><g opacity="1" transform="matrix(4,0,0,4,0,0)"><path fill="rgb(137,226,25)" fill-opacity="1" d=" M-1.434000015258789,-22.041000366210938 C9.473999977111816,-22.94499969482422 18.485000610351562,-13.649999618530273 17.242000579833984,-2.7750000953674316 C17.242000579833984,-2.7750000953674316 16.097999572753906,7.22599983215332 16.097999572753906,7.22599983215332 C15.175000190734863,15.295999526977539 8.604999542236328,21.547000885009766 0.49900001287460327,22.066999435424805 C-9.17199993133545,22.687000274658203 -17.356000900268555,15.01099967956543 -17.356000900268555,5.320000171661377 C-17.356000900268555,5.320000171661377 -17.356000900268555,-4.745999813079834 -17.356000900268555,-4.745999813079834 C-17.356000900268555,-13.774999618530273 -10.432999610900879,-21.29599952697754 -1.434000015258789,-22.041000366210938z" data-darkreader-inline-fill="" style="--darkreader-inline-fill: #6eb514;"></path></g></g><g transform="matrix(1,0,0,1,134.57400512695312,207.14999389648438)" opacity="1" style="display: block;"><g opacity="1" transform="matrix(4,0,0,4,0,0)"><path fill="rgb(137,226,25)" fill-opacity="1" d=" M1.434000015258789,-22.041000366210938 C-9.473999977111816,-22.94499969482422 -18.485000610351562,-13.649999618530273 -17.242000579833984,-2.7750000953674316 C-17.242000579833984,-2.7750000953674316 -16.097999572753906,7.22599983215332 -16.097999572753906,7.22599983215332 C-15.175000190734863,15.295999526977539 -8.604999542236328,21.547000885009766 -0.49900001287460327,22.066999435424805 C9.17199993133545,22.687000274658203 17.356000900268555,15.01099967956543 17.356000900268555,5.320000171661377 C17.356000900268555,5.320000171661377 17.356000900268555,-4.745999813079834 17.356000900268555,-4.745999813079834 C17.356000900268555,-13.774999618530273 10.432999610900879,-21.29599952697754 1.434000015258789,-22.041000366210938z" data-darkreader-inline-fill="" style="--darkreader-inline-fill: #6eb514;"></path></g></g><g transform="matrix(1,0,0,1,136.63499450683594,207.98899841308594)" opacity="1" style="display: block;"><g opacity="1" transform="matrix(4,0,0,4,0,0)"><path fill="rgb(255,255,255)" fill-opacity="1" d=" M1.871000051498413,-15.593000411987305 C-5.752999782562256,-16.812999725341797 -12.484999656677246,-10.527000427246094 -11.791999816894531,-2.8380000591278076 C-11.791999816894531,-2.8380000591278076 -11.059000015258789,5.297999858856201 -11.059000015258789,5.297999858856201 C-10.595000267028809,10.4399995803833 -6.754000186920166,14.638999938964844 -1.6740000247955322,15.557999610900879 C5.366000175476074,16.83099937438965 11.840999603271484,11.42199993133545 11.840999603271484,4.26800012588501 C11.840999603271484,4.26800012588501 11.840999603271484,-3.9010000228881836 11.840999603271484,-3.9010000228881836 C11.840999603271484,-9.718000411987305 7.614999771118164,-14.673999786376953 1.871000051498413,-15.593000411987305z" data-darkreader-inline-fill="" style="--darkreader-inline-fill: #181a1b;"></path></g></g><g transform="matrix(1,0,0,1,147.43899536132812,205)" opacity="1" style="display: block;"><g opacity="1" transform="matrix(4,0,0,4,0,0)"><path fill="rgb(75,75,75)" fill-opacity="1" d=" M0,-9 C-3.6600000858306885,-9 -6.50600004196167,-5.818999767303467 -6.1020002365112305,-2.181999921798706 C-6.1020002365112305,-2.181999921798706 -5.433000087738037,3.8359999656677246 -5.433000087738037,3.8359999656677246 C-5.105999946594238,6.776000022888184 -2.621999979019165,9 0.335999995470047,9 C3.5420000553131104,9 6.139999866485596,6.401000022888184 6.139999866485596,3.194999933242798 C6.139999866485596,3.194999933242798 6.139999866485596,-2.859999895095825 6.139999866485596,-2.859999895095825 C6.139999866485596,-6.250999927520752 3.3910000324249268,-9 0,-9z" data-darkreader-inline-fill="" style="--darkreader-inline-fill: #b9b3a9;"></path></g></g><g transform="matrix(1,0,0,1,124.79700469970703,183.7969970703125)" opacity="1" style="display: block;"><g opacity="1" transform="matrix(4,0,0,4,0,0)"><path fill="rgb(255,255,255)" fill-opacity="1" d=" M0,3.6989998817443848 C2.0429999828338623,3.6989998817443848 3.6989998817443848,2.0429999828338623 3.6989998817443848,0 C3.6989998817443848,-2.0429999828338623 2.0429999828338623,-3.6989998817443848 0,-3.6989998817443848 C-2.0429999828338623,-3.6989998817443848 -3.6989998817443848,-2.0429999828338623 -3.6989998817443848,0 C-3.6989998817443848,2.0429999828338623 -2.0429999828338623,3.6989998817443848 0,3.6989998817443848z" data-darkreader-inline-fill="" style="--darkreader-inline-fill: #e8e6e3;"></path></g></g><g transform="matrix(1,0,0,1,307.364990234375,207.98899841308594)" opacity="1" style="display: block;"><g opacity="1" transform="matrix(4,0,0,4,0,0)"><path fill="rgb(255,255,255)" fill-opacity="1" d=" M-1.871000051498413,-15.593000411987305 C5.752999782562256,-16.812999725341797 12.484999656677246,-10.527000427246094 11.791999816894531,-2.8380000591278076 C11.791999816894531,-2.8380000591278076 11.059000015258789,5.297999858856201 11.059000015258789,5.297999858856201 C10.595000267028809,10.4399995803833 6.754000186920166,14.638999938964844 1.6740000247955322,15.557999610900879 C-5.366000175476074,16.83099937438965 -11.840999603271484,11.42199993133545 -11.840999603271484,4.26800012588501 C-11.840999603271484,4.26800012588501 -11.840999603271484,-3.9010000228881836 -11.840999603271484,-3.9010000228881836 C-11.840999603271484,-9.718000411987305 -7.614999771118164,-14.673999786376953 -1.871000051498413,-15.593000411987305z" data-darkreader-inline-fill="" style="--darkreader-inline-fill: #181a1b;"></path></g></g><g transform="matrix(1,0,0,1,296.5610046386719,205)" opacity="1" style="display: block;"><g opacity="1" transform="matrix(4,0,0,4,0,0)"><path fill="rgb(75,75,75)" fill-opacity="1" d=" M0,-9 C-3.3910000324249268,-9 -6.139999866485596,-6.250999927520752 -6.139999866485596,-2.859999895095825 C-6.139999866485596,-2.859999895095825 -6.139999866485596,3.194999933242798 -6.139999866485596,3.194999933242798 C-6.139999866485596,6.401000022888184 -3.5420000553131104,9 -0.335999995470047,9 C2.621999979019165,9 5.105999946594238,6.776000022888184 5.433000087738037,3.8359999656677246 C5.433000087738037,3.8359999656677246 6.1020002365112305,-2.181999921798706 6.1020002365112305,-2.181999921798706 C6.50600004196167,-5.818999767303467 3.6600000858306885,-9 0,-9z" data-darkreader-inline-fill="" style="--darkreader-inline-fill: #b9b3a9;"></path></g></g><g transform="matrix(0.949999988079071,0,0,0.949999988079071,277.5469970703125,183.7969970703125)" opacity="1" style="display: block;"><g opacity="1" transform="matrix(4,0,0,4,0,0)"><path fill="rgb(255,255,255)" fill-opacity="1" d=" M0,3.6989998817443848 C2.0429999828338623,3.6989998817443848 3.6989998817443848,2.0429999828338623 3.6989998817443848,0 C3.6989998817443848,-2.0429999828338623 2.0429999828338623,-3.6989998817443848 0,-3.6989998817443848 C-2.0429999828338623,-3.6989998817443848 -3.6989998817443848,-2.0429999828338623 -3.6989998817443848,0 C-3.6989998817443848,1.1699999570846558 -3.1559998989105225,2.2119998931884766 -2.309000015258789,2.890000104904175 C-1.6759999990463257,3.3959999084472656 -0.8730000257492065,3.6989998817443848 0,3.6989998817443848z" data-darkreader-inline-fill="" style="--darkreader-inline-fill: #e8e6e3;"></path></g></g><g transform="matrix(0.9925461411476135,0.12186934053897858,-0.12186934053897858,0.9925461411476135,173.050048828125,165.96275329589844)" opacity="1" style="display: none;"><path fill="rgb(137,226,25)" fill-opacity="1" d=" M191.6580047607422,52.297000885009766 C191.6580047607422,52.297000885009766 152.88099670410156,145.99400329589844 57.24800109863281,53.97999954223633 C-27.840999603271484,175.74000549316406 -79,72.88800048828125 -79,72.88800048828125 C-79,72.88800048828125 -52.6349983215332,132.00900268554688 1.0010000467300415,109.41000366210938 C39.612998962402344,93.14099884033203 56.69300079345703,50.499000549316406 56.69300079345703,50.499000549316406 C56.69300079345703,50.499000549316406 96.95099639892578,110.41000366210938 149.58700561523438,94.81099700927734 C186.6230010986328,83.83499908447266 191.6580047607422,52.297000885009766 191.6580047607422,52.297000885009766z M147.5,-47 C100.36399841308594,-55.53099822998047 83.0469970703125,-11.678000450134277 58,-7 C23.36400032043457,-0.531000018119812 11.86400032043457,-28.5310001373291 -34,-26.5 C-88.48300170898438,-24.086999893188477 -87.5,20.5 -87.5,20.5 C-87.5,20.5 -85.13600158691406,-54.53099822998047 52.5,-5.5 C139.36399841308594,-72.53099822998047 179.22300720214844,-24.98900032043457 179.22300720214844,-24.98900032043457 C179.22300720214844,-24.98900032043457 180.28799438476562,-41.066001892089844 147.5,-47z" data-darkreader-inline-fill="" style="--darkreader-inline-fill: #6eb514;"></path></g><g style="display: none;" transform="matrix(0.9925461411476135,0.12186934053897858,-0.12186934053897858,0.9925461411476135,173.050048828125,165.96275329589844)" opacity="1"><path fill="rgb(137,226,25)" fill-opacity="1" d=" M191.6580047607422,52.297000885009766 C191.6580047607422,52.297000885009766 152.88099670410156,145.99400329589844 57.24800109863281,53.97999954223633 C-27.840999603271484,175.74000549316406 -79,72.88800048828125 -79,72.88800048828125 C-79,72.88800048828125 -52.6349983215332,132.00900268554688 1.0010000467300415,109.41000366210938 C39.612998962402344,93.14099884033203 56.69300079345703,50.499000549316406 56.69300079345703,50.499000549316406 C56.69300079345703,50.499000549316406 96.95099639892578,110.41000366210938 149.58700561523438,94.81099700927734 C186.6230010986328,83.83499908447266 191.6580047607422,52.297000885009766 191.6580047607422,52.297000885009766z M147.5,-47 C100.36399841308594,-55.53099822998047 83.0469970703125,-11.678000450134277 58,-7 C23.36400032043457,-0.531000018119812 11.86400032043457,-28.5310001373291 -34,-26.5 C-88.48300170898438,-24.086999893188477 -87.5,20.5 -87.5,20.5 C-87.5,20.5 -85.13600158691406,-54.53099822998047 52.5,-5.5 C139.36399841308594,-72.53099822998047 179.22300720214844,-24.98900032043457 179.22300720214844,-24.98900032043457 C179.22300720214844,-24.98900032043457 180.28799438476562,-41.066001892089844 147.5,-47z" data-darkreader-inline-fill="" style="--darkreader-inline-fill: #6eb514;"></path></g><g transform="matrix(1,0,0,1,222.49200439453125,251.8209991455078)" opacity="1" style="display: block;"><g opacity="1" transform="matrix(4,0,0,4,0.000999998301267624,0.00099945068359375)"><path fill="rgb(244,144,0)" fill-opacity="1" d=" M6.164999961853027,-0.9860000014305115 C6.164999961853027,-4.355999946594238 3.369999885559082,-7.1519999504089355 0,-7.1519999504089355 C-3.369999885559082,-7.1519999504089355 -6.164999961853027,-4.355999946594238 -6.164999961853027,-0.9860000014305115 C-6.164999961853027,-0.9860000014305115 -6.164999961853027,0.9860000014305115 -6.164999961853027,0.9860000014305115 C-6.164999961853027,4.355999946594238 -3.369999885559082,7.1519999504089355 0,7.1519999504089355 C3.369999885559082,7.1519999504089355 6.164999961853027,4.355999946594238 6.164999961853027,0.9860000014305115 C6.164999961853027,0.9860000014305115 6.164999961853027,-0.9860000014305115 6.164999961853027,-0.9860000014305115z" data-darkreader-inline-fill="" style="--darkreader-inline-fill: #ffa421;"></path></g><g opacity="1" transform="matrix(4,0,0,4,-0.0010000020265579224,-0.0010013580322265625)"><path fill="rgb(176,104,0)" fill-opacity="1" d=" M4.501999855041504,-2.9549999237060547 C4.501999855041504,-4.938000202178955 2.4609999656677246,-6.581999778747559 0,-6.581999778747559 C-2.4609999656677246,-6.581999778747559 -4.501999855041504,-4.938000202178955 -4.501999855041504,-2.9549999237060547 C-4.501999855041504,-2.9549999237060547 -4.501999855041504,-1.7949999570846558 -4.501999855041504,-1.7949999570846558 C-4.501999855041504,0.18799999356269836 -2.4609999656677246,1.8320000171661377 0,1.8320000171661377 C2.4609999656677246,1.8320000171661377 4.501999855041504,0.18799999356269836 4.501999855041504,-1.7949999570846558 C4.501999855041504,-1.7949999570846558 4.501999855041504,-2.9549999237060547 4.501999855041504,-2.9549999237060547z" data-darkreader-inline-fill="" style="--darkreader-inline-fill: #ffb851;"></path></g></g><g transform="matrix(1.0399999618530273,0,0,1.1699999570846558,219.90728759765625,245.1121063232422)" opacity="1" style="display: block;"><g opacity="1" transform="matrix(1.010740041732788,0,0,1,2.4955787658691406,21.654998779296875)"><path fill="rgb(244,144,0)" fill-opacity="1" d=" M24.102500915527344,-7.368999481201172 C24.102500915527344,-7.368999481201172 24.102500915527344,7.368999481201172 24.102500915527344,7.368999481201172 C24.102500915527344,20.67116928100586 13.302169799804688,31.471500396728516 0,31.471500396728516 C0,31.471500396728516 0,31.471500396728516 0,31.471500396728516 C-13.302169799804688,31.471500396728516 -24.102500915527344,20.67116928100586 -24.102500915527344,7.368999481201172 C-24.102500915527344,7.368999481201172 -24.102500915527344,-7.368999481201172 -24.102500915527344,-7.368999481201172 C-24.102500915527344,-20.67116928100586 -13.302169799804688,-31.471500396728516 0,-31.471500396728516 C0,-31.471500396728516 0,-31.471500396728516 0,-31.471500396728516 C13.302169799804688,-31.471500396728516 24.102500915527344,-20.67116928100586 24.102500915527344,-7.368999481201172z" data-darkreader-inline-fill="" style="--darkreader-inline-fill: #ffa421;"></path></g></g><g transform="matrix(0.7499959468841553,0,0,1.0433708429336548,221.1653594970703,246.8660888671875)" opacity="1" style="display: block;"><g opacity="1" transform="matrix(1,0,0,1,2.315000057220459,14.253000259399414)"><path fill="rgb(169,102,6)" fill-opacity="1" d=" M25.065500259399414,-5.496500015258789 C25.065500259399414,-5.496500015258789 25.065500259399414,5.496500015258789 25.065500259399414,5.496500015258789 C25.065500259399414,18.190200805664062 14.759200096130371,28.49650001525879 2.065500259399414,28.49650001525879 C2.065500259399414,28.49650001525879 -2.065500259399414,28.49650001525879 -2.065500259399414,28.49650001525879 C-14.759200096130371,28.49650001525879 -25.065500259399414,18.190200805664062 -25.065500259399414,5.496500015258789 C-25.065500259399414,5.496500015258789 -25.065500259399414,-5.496500015258789 -25.065500259399414,-5.496500015258789 C-25.065500259399414,-18.190200805664062 -14.759200096130371,-28.49650001525879 -2.065500259399414,-28.49650001525879 C-2.065500259399414,-28.49650001525879 2.065500259399414,-28.49650001525879 2.065500259399414,-28.49650001525879 C14.759200096130371,-28.49650001525879 25.065500259399414,-18.190200805664062 25.065500259399414,-5.496500015258789z" data-darkreader-inline-fill="" style="--darkreader-inline-fill: #f9b757;"></path></g></g><g transform="matrix(0.9999921321868896,0,0,1.000008463859558,219.9983673095703,237.99952697753906)" opacity="1" style="display: block;"><path fill="rgb(255,202,255)" fill-opacity="1" d=" M2.437999963760376,36.875 C-8.562000274658203,36.875 -12.812000274658203,43.8120002746582 -12.812000274658203,43.8120002746582 C-12.812000274658203,43.8120002746582 -8.625,53.6879997253418 2.375,53.6879997253418 C14.625,53.6879997253418 18.125,44.125 18.125,44.125 C18.125,44.125 13.37600040435791,36.875 2.437999963760376,36.875z" data-darkreader-inline-fill="" style="--darkreader-inline-fill: #ffa7ff;"></path></g><g transform="matrix(1,0,0,1,222.16400146484375,242.4770050048828)" opacity="1" style="display: block;"><g opacity="1" transform="matrix(4,0,0,4,0,0)"><path fill="rgb(255,194,0)" fill-opacity="1" d=" M0.164000004529953,-4.815999984741211 C-4.111000061035156,-4.815999984741211 -7.7270002365112305,-2.0199999809265137 -8.467000007629395,1.7610000371932983 C-8.467000007629395,1.7610000371932983 -8.467000007629395,2.0889999866485596 -8.467000007629395,2.0889999866485596 C-8.467000007629395,2.3359999656677246 -8.385000228881836,2.4179999828338623 -8.137999534606934,2.4179999828338623 C-8.137999534606934,2.4179999828338623 0.27300000190734863,4.827000141143799 0.27300000190734863,4.827000141143799 C0.43700000643730164,4.827000141143799 8.137999534606934,2.4179999828338623 8.137999534606934,2.4179999828338623 C8.385000228881836,2.5 8.467000007629395,2.3359999656677246 8.467000007629395,2.0889999866485596 C8.467000007629395,2.0889999866485596 8.467000007629395,1.7610000371932983 8.467000007629395,1.7610000371932983 C7.7270002365112305,-1.937999963760376 4.191999912261963,-4.815999984741211 0.164000004529953,-4.815999984741211z" data-darkreader-inline-fill="" style="--darkreader-inline-fill: #ffc81a;"></path></g></g><g transform="matrix(0.9995499849319458,0.029997708275914192,-0.029997708275914192,0.9995499849319458,236.65573120117188,198.16673278808594)" opacity="1" style="display: block;"><g opacity="1" transform="matrix(1,0,0,1,-1.75600004196167,0.1720000058412552)"><path stroke-linecap="round" stroke-linejoin="miter" fill-opacity="0" stroke-miterlimit="4" stroke="rgb(255,222,0)" stroke-opacity="1" stroke-width="15.445" d=" M-18.80699920654297,38.847999572753906 C-16.28499984741211,37.30799865722656 -9.6899995803833,35.83599853515625 -3.8329999446868896,38.72600173950195" data-darkreader-inline-stroke="" style="--darkreader-inline-stroke: #ffe11a;"></path></g></g></g></g></g></svg>