<svg width="155" height="36" viewBox="0 0 155 36" fill="none" xmlns="http://www.w3.org/2000/svg">
<path d="M133.973 18.0001C133.973 12.3077 138.31 8.29586 144.057 8.29586C149.804 8.29586 154.141 12.3077 154.141 18.0001C154.141 23.6925 149.804 27.7042 144.057 27.7042C138.31 27.7042 133.973 23.6382 133.973 18.0001ZM148.448 18.0001C148.448 15.3436 146.768 13.3919 144.111 13.3919C141.455 13.3919 139.774 15.3436 139.774 18.0001C139.774 20.6565 141.455 22.6082 144.111 22.6082C146.768 22.6082 148.448 20.7107 148.448 18.0001ZM130.178 13.5003C130.558 14.2593 130.72 15.0725 130.72 15.9399C130.72 18.0001 129.636 19.8975 127.901 21.3613C130.287 22.4998 131.696 25.2646 131.696 27.8669C131.696 32.7461 127.739 35.9989 121.721 35.9989C115.703 35.9989 111.746 32.8003 111.746 27.8669C111.692 25.1562 113.155 22.6624 115.541 21.3613C113.752 19.8975 112.722 18.0001 112.722 15.9399C112.722 11.6571 116.083 8.51272 121.396 8.51272C124.54 8.51272 125.462 9.05485 127.251 9.05485C128.443 9.10906 129.69 8.78378 130.72 8.13322C131.1 7.91637 131.479 7.75373 131.913 7.75373C132.618 7.75373 132.997 8.4585 132.997 9.32592C133.16 11.2234 131.967 12.904 130.178 13.5003ZM126.112 27.7042C126.112 25.5357 124.432 24.0177 121.775 24.0177C119.119 24.0177 117.438 25.4815 117.438 27.7042C117.438 29.7643 119.281 31.3908 121.775 31.3908C124.269 31.3908 126.112 29.7643 126.112 27.7042ZM118.251 16.2652C118.306 18.1627 119.932 19.6807 121.884 19.6265C123.727 19.5722 125.136 18.1085 125.245 16.2652C125.245 14.3135 123.835 12.9582 121.775 12.9582C119.715 12.9582 118.251 14.2593 118.251 16.2652ZM109.144 18.3795V25.1562C109.144 26.4573 108.656 26.9995 107.246 26.9995H105.349C103.939 26.9995 103.451 26.4573 103.451 25.1562V18.5422C103.451 16.8616 103.18 15.6689 102.584 14.9099C101.879 14.0425 100.795 13.6088 99.7104 13.663C98.5719 13.6088 97.4877 14.0967 96.7287 14.9099C96.0781 15.6689 95.6444 16.8616 95.6444 18.488V25.102C95.6444 26.4573 95.0481 26.9453 93.747 26.9453H91.8495C90.5484 26.9453 89.952 26.4573 89.952 25.102V9.92226C89.952 9.05485 90.3857 8.67536 91.0363 8.67536C92.0121 8.67536 93.3675 9.48856 94.3975 11.0607C95.9697 9.32592 98.1925 8.35008 100.524 8.35008C103.289 8.35008 105.511 9.32592 106.975 10.9523C108.439 12.5787 109.144 14.8015 109.144 18.3795ZM79.5431 3.09138C79.5431 1.35655 81.0068 0.0012207 82.6874 0.0012207H82.7959C84.4765 0.109647 85.7776 1.57341 85.6692 3.25402C85.5607 4.93464 84.097 6.23576 82.4164 6.12733C80.79 6.07312 79.5431 4.71778 79.5431 3.09138ZM79.9226 25.1562V10.8981C79.9226 9.59698 80.4105 9.00064 81.82 9.00064H83.7175C85.127 9.00064 85.615 9.54277 85.615 10.8981V25.1562C85.615 26.4573 85.127 26.9995 83.7175 26.9995H81.82C80.4105 26.9995 79.9226 26.4573 79.9226 25.1562ZM69.8931 25.1562V7.26581C69.8931 2.7661 72.3869 0.218074 74.5012 0.218074C75.1518 0.218074 75.5855 0.651781 75.5855 1.46498V25.1562C75.5855 26.5116 75.0434 26.9995 73.688 26.9995H71.7906C70.4894 26.9995 69.8931 26.5116 69.8931 25.1562ZM46.4729 18.0001C46.4729 12.3077 50.81 8.29586 56.5566 8.29586C62.3032 8.29586 66.6403 12.3077 66.6403 18.0001C66.6403 23.6925 62.3032 27.7042 56.5566 27.7042C50.81 27.7042 46.4729 23.6382 46.4729 18.0001ZM60.8937 18.0001C60.8937 15.3436 59.2131 13.3919 56.5566 13.3919C53.9001 13.3919 52.2195 15.3436 52.2195 18.0001C52.2195 20.6565 53.9001 22.6082 56.5566 22.6082C59.2131 22.6082 60.8937 20.7107 60.8937 18.0001ZM43.5454 10.8981V26.0778C43.5454 26.9453 43.1117 27.3248 42.4611 27.3248C41.4853 27.3248 40.13 26.5115 39.1541 24.9936C37.6361 26.7284 35.4676 27.7042 33.1364 27.65C30.9679 27.7042 28.9078 26.9453 27.2814 25.4815C25.6008 23.8551 24.6792 21.3613 24.6792 17.7832V10.8981C24.6792 9.59698 25.1671 9.00064 26.5766 9.00064H28.4741C29.8836 9.00064 30.3716 9.54277 30.3716 10.8981V17.2953C30.3716 19.4638 30.751 20.6023 31.4558 21.3613C32.1064 22.0118 33.0822 22.3913 34.0038 22.3371C35.0339 22.3371 36.0097 21.9576 36.7145 21.1986C37.4193 20.4397 37.7988 19.247 37.7988 17.4037V10.8981C37.7988 9.54277 38.3951 9.00064 39.6963 9.00064H41.5937C42.9491 9.00064 43.5454 9.54277 43.5454 10.8981ZM20.7758 1.46498V26.0778C20.7758 26.9453 20.3421 27.3248 19.6915 27.3248C18.7157 27.3248 17.3603 26.5115 16.3845 25.0478C15.1918 26.4573 12.7522 27.7042 9.93312 27.7042C4.29493 27.7042 0.5 23.584 0.5 18.0001C0.5 12.4161 4.40336 8.29586 9.93312 8.29586C11.7764 8.29586 13.5654 8.838 15.1376 9.86805V7.26581C15.1376 2.7661 17.6856 0.218074 19.7457 0.218074C20.3963 0.218074 20.7758 0.651781 20.7758 1.46498ZM15.1376 18.0001C15.1376 15.2352 13.1859 13.3919 10.7463 13.3919C8.30672 13.3919 6.30083 15.2352 6.30083 18.0001C6.30083 20.7649 8.25251 22.6082 10.7463 22.6082C13.2401 22.6082 15.1376 20.8191 15.1376 18.0001Z" fill="white"/>
</svg>
