<svg width="606" height="88" viewBox="0 0 606 88" fill="none" xmlns="http://www.w3.org/2000/svg"><path fill-rule="evenodd" clip-rule="evenodd" d="M394.135 42.6318C393.605 41.7036 392.809 40.908 391.815 40.3112C390.82 39.7808 389.958 39.5156 388.632 39.5156L361.183 39.6482C358.863 39.6482 357.404 40.046 355.415 41.1732C353.426 42.3003 352.431 44.0242 351.304 46.0132L335.458 73.6611L333.071 78.1033C332.475 79.0978 332.143 80.1587 332.143 81.2858C332.143 82.4129 332.408 83.5401 333.005 84.4683C333.535 85.4628 334.331 86.2584 335.326 86.7888C336.254 87.3193 337.381 87.6508 338.508 87.5845H364.631C366.885 87.5845 369.073 86.9878 371.062 85.8606C373.051 84.7335 374.643 83.0759 375.77 81.1532L391.947 52.5771L394.069 48.9968C394.666 48.0686 394.931 46.9414 394.931 45.8143C394.997 44.6872 394.666 43.6263 394.135 42.6318ZM370.788 55.0137L370.785 55.0186L370.784 55.0208C370.242 55.9635 369.711 56.8892 369.206 57.8149L369.204 57.8187C368.276 59.4087 367.349 60.9987 366.421 62.655C365.626 63.9799 364.831 65.3711 364.036 66.7623L364.034 66.7657C363.991 66.8415 363.946 66.9191 363.9 66.9982L363.827 67.1224L363.789 67.1866C363.582 67.5388 363.36 67.9147 363.172 68.2906C362.541 69.3434 361.936 70.3961 361.341 71.4319L361.338 71.4371C360.997 72.0304 360.659 72.6181 360.321 73.197L359.725 74.1915L359.672 74.258C359.432 74.5586 359.238 74.8017 358.929 74.9871C358.531 75.186 358.133 75.3186 357.736 75.3186H354.752C354.553 75.3186 354.421 75.2523 354.222 75.1197C353.89 74.9871 353.625 74.5893 353.758 74.1915C353.824 73.9926 353.89 73.86 354.023 73.6611C354.752 72.4013 355.481 71.125 356.211 69.8487C356.94 68.5724 357.669 67.2961 358.399 66.0364C358.995 65.0087 359.592 63.9645 360.189 62.9202C360.786 61.876 361.382 60.8317 361.979 59.804L362.509 58.8095C362.775 58.4117 363.04 58.0138 363.239 57.5497C363.628 56.9663 363.981 56.3473 364.325 55.7448L364.325 55.7444C364.45 55.5254 364.574 55.3086 364.697 55.0966C364.826 54.8908 364.945 54.6851 365.061 54.4832L365.061 54.4828C365.245 54.1644 365.423 53.8556 365.626 53.5716C365.692 53.4391 365.758 53.3231 365.824 53.2071C365.891 53.091 365.957 52.975 366.023 52.8423C366.156 52.5771 366.421 52.3119 366.753 52.1793C367.15 51.9141 367.548 51.8478 367.946 51.8478H370.93C371.087 51.8478 371.203 51.8893 371.343 51.9395C371.38 51.9527 371.419 51.9665 371.46 51.9804C371.548 52.0245 371.637 52.1275 371.725 52.2305L371.725 52.2308C371.77 52.2824 371.814 52.334 371.858 52.3782C372.057 52.776 371.924 53.0412 371.725 53.3727C371.414 53.9241 371.102 54.4669 370.793 55.0041L370.788 55.0137ZM260.227 44.3557C261.62 41.9688 264.205 40.4439 266.99 40.4439H279.985C293.776 40.4439 299.611 48.0686 295.235 57.0193L284.759 76.711C281.245 82.9433 274.681 86.7888 267.521 86.7888H246.635L243.983 86.7225C240.469 86.7225 238.348 83.0096 240.072 79.9598L260.227 44.3557ZM276.272 58.0138L276.538 57.4834C278.46 53.7705 275.808 52.9086 274.482 52.7097C273.952 52.6434 273.421 52.8423 273.156 53.3064H273.09C273.057 53.4059 273.007 53.5053 272.957 53.6048L272.957 53.6053C272.907 53.7046 272.858 53.8039 272.825 53.9031C272.659 54.1352 272.51 54.3838 272.361 54.6324L272.36 54.6333L272.36 54.6338L272.36 54.6342L272.359 54.6344C272.211 54.8824 272.062 55.1303 271.897 55.3618L270.504 57.7486C270.383 58.0318 270.237 58.2903 270.096 58.5391C270.006 58.6982 269.919 58.8533 269.841 59.0084L269.311 59.9366C268.472 61.3341 267.666 62.7315 266.847 64.152L266.847 64.153C266.5 64.754 266.151 65.3591 265.797 65.9701L261.62 73.3296C261.518 73.4309 261.456 73.5708 261.402 73.6904C261.386 73.7273 261.37 73.7624 261.354 73.7937C261.222 74.1915 261.487 74.5893 261.819 74.7219C261.951 74.8545 262.15 74.9208 262.349 74.9208H265.2C265.598 74.9208 265.929 74.7882 266.261 74.6556C266.592 74.4567 266.791 74.2578 266.99 73.9926C267.255 73.5948 267.454 73.2633 267.653 72.8655C268.581 71.3405 269.51 69.7493 270.438 68.158C270.57 67.8928 270.72 67.6441 270.869 67.3955L270.869 67.3946L270.87 67.3941L270.87 67.3938C271.019 67.1458 271.168 66.8977 271.3 66.6331C271.664 65.9701 272.046 65.3071 272.427 64.644L272.429 64.6405C272.809 63.9787 273.19 63.3168 273.554 62.655C274.018 61.8925 274.466 61.1135 274.913 60.3344C275.361 59.5554 275.808 58.7763 276.272 58.0138ZM346.734 40.908C347.33 41.2395 347.728 41.7036 348.06 42.234C348.391 42.7644 348.524 43.3611 348.524 43.9579C348.524 44.6209 348.391 45.2176 348.06 45.748L329.23 79.6283C327.904 82.0151 325.915 84.0705 323.528 85.4628C321.141 86.8552 318.423 87.5845 315.704 87.5845H294.024C292.631 87.5845 291.305 87.253 290.112 86.5899C288.918 85.9269 287.858 84.9324 287.195 83.739C286.465 82.5455 286.134 81.2195 286.134 79.8272C286.134 78.5011 286.465 77.1088 287.128 75.9153L305.56 43.1622C305.958 42.3666 306.621 41.7036 307.417 41.1732C308.212 40.7091 309.141 40.4439 310.069 40.4439H320.014C320.677 40.4439 321.274 40.6428 321.804 40.9743C322.335 41.2395 322.799 41.7036 323.064 42.234C323.395 42.7644 323.594 43.3611 323.594 44.0242C323.594 44.6209 323.395 45.2176 323.13 45.8143L309.141 70.4786C309.008 70.6775 308.942 70.8764 308.942 71.1416C308.942 71.4068 309.008 71.6057 309.141 71.8046C309.273 72.0035 309.406 72.2024 309.605 72.2687C309.804 72.4013 310.069 72.4676 310.268 72.4676H312.19C312.655 72.4676 313.185 72.335 313.649 72.0698C314.047 71.8046 314.445 71.4731 314.71 71.009L330.225 43.0959C330.689 42.3003 331.352 41.6373 332.147 41.1732C332.943 40.7091 333.805 40.4439 334.733 40.4439H345.01C345.607 40.4439 346.203 40.6428 346.734 40.908ZM405.131 72.4676H419.983C422.568 72.4676 424.226 75.3186 422.966 77.6392L419.055 84.6009C419.055 84.6009 417.662 86.7888 414.546 86.7888H414.413H412.623H412.424H380.401C378.279 86.7888 376.953 84.4683 378.014 82.6781L384.379 71.6057C385.042 70.4786 385.705 69.3515 386.368 68.158C386.612 67.8156 386.821 67.437 387.02 67.0756L387.02 67.0754C387.091 66.9471 387.16 66.821 387.23 66.6994C387.561 66.1027 387.893 65.5723 388.224 65.0418L389.351 63.0528L391.34 59.6714C391.539 59.3399 391.672 59.0747 391.738 58.8095C391.863 58.643 391.962 58.4765 392.051 58.3264C392.103 58.2374 392.153 58.1542 392.202 58.0801C392.6 57.384 392.998 56.6712 393.396 55.9585C393.793 55.2458 394.191 54.533 394.589 53.8368L400.291 43.8916C401.484 41.7699 403.739 40.4439 406.192 40.4439H416.867C418.856 40.4439 420.115 42.6318 419.121 44.3557L416.137 49.5935L414.148 53.0412L404.07 70.7438C403.672 71.5394 404.203 72.4676 405.131 72.4676ZM460.251 40.3776H449.51C447.123 40.3776 444.869 41.7036 443.609 43.8252L437.973 53.7705C437.111 55.2292 436.316 56.6215 435.52 58.0138L435.122 58.7432C435.103 58.781 435.084 58.8203 435.065 58.8604L435.025 58.9461C434.921 59.1654 434.809 59.4042 434.658 59.6051L432.669 63.0528L431.542 64.9755C431.376 65.2739 431.211 65.5557 431.045 65.8375C430.879 66.1193 430.713 66.401 430.548 66.6994C430.509 66.7665 430.471 66.8349 430.432 66.9043L430.382 66.9955L430.338 67.0754L430.338 67.0756C430.139 67.437 429.93 67.8156 429.686 68.158C429.354 68.7216 429.023 69.3017 428.691 69.8818C428.36 70.462 428.028 71.0421 427.697 71.6057L420.337 84.2694C419.74 85.3965 420.536 86.7888 421.796 86.7888H431.078L435.984 86.7225C437.443 86.7225 438.703 85.9269 439.432 84.6672L441.885 80.5565L457.532 53.0412L459.521 49.5272L462.505 44.2894C463.5 42.5655 462.24 40.3776 460.251 40.3776ZM496.898 40.5102H507.572C509.495 40.5102 510.755 42.6318 509.826 44.3557L506.843 49.6598L504.854 53.1075L489.273 80.5565L486.82 84.6672C486.09 85.9269 484.764 86.6562 483.372 86.7225L478.466 86.7888H475.747H469.25C468.189 86.7888 467.327 85.7943 467.592 84.7335L470.708 71.009C470.775 70.6775 470.377 70.5449 470.244 70.8101L464.675 80.5565L462.288 84.6672C461.559 85.9269 460.233 86.6562 458.774 86.7225L453.934 86.7888H444.652C443.392 86.7888 442.596 85.3965 443.193 84.2694L450.553 71.6057L452.542 68.2243C452.807 67.6939 453.072 67.2298 453.404 66.6994C453.569 66.4342 453.718 66.1525 453.868 65.8707C454.017 65.5889 454.166 65.3071 454.332 65.0418L455.459 63.1191L457.514 59.6714C457.547 59.5719 457.597 59.4725 457.647 59.373C457.697 59.2736 457.746 59.1741 457.779 59.0747L458.244 58.1464C458.77 57.296 459.272 56.4209 459.779 55.5361L459.78 55.5339L459.781 55.533L459.781 55.5325L459.79 55.5171L459.793 55.5116C460.112 54.9559 460.432 54.3963 460.763 53.8368L466.399 43.8916C467.658 41.7699 469.846 40.5102 472.3 40.5102H482.974C484.764 40.5102 485.958 42.234 485.427 43.8252V43.8916L482.245 58.1464C482.179 58.478 482.643 58.6106 482.775 58.3454L485.295 53.8368L490.997 43.8916C492.19 41.7699 494.444 40.5102 496.898 40.5102ZM554.77 42.6318C554.24 41.6373 553.444 40.8417 552.45 40.3112C551.521 39.7808 550.66 39.5156 549.333 39.5156L522.017 39.6482C519.697 39.6482 518.238 40.046 516.315 41.1732C514.35 42.2869 513.355 43.9834 512.244 45.8786V45.8788L512.244 45.8792L512.204 45.9469L496.425 73.4622L494.038 77.9044C493.441 78.8989 493.176 79.9598 493.11 81.0869C493.11 82.214 493.375 83.3412 493.971 84.2694C494.502 85.2639 495.297 86.0595 496.292 86.5899C497.22 87.1204 498.347 87.3856 499.408 87.3856H525.465C527.719 87.3856 529.907 86.7888 531.896 85.6617C533.819 84.5346 534.681 83.9379 536.405 81.0206L540.648 73.5948C541.046 72.8655 541.775 72.4676 542.571 72.4676C543.499 72.4676 544.427 72.2024 545.223 71.7383C546.085 71.2079 546.748 70.5449 547.146 69.683L549.002 66.4342C549.267 65.9038 549.4 65.307 549.4 64.7766C549.4 64.1799 549.267 63.5832 548.936 63.0528C548.67 62.5887 548.206 62.1246 547.742 61.8594C547.212 61.5941 546.615 61.3952 546.018 61.3952H526.592C524.934 61.3952 523.409 62.3235 522.614 63.8484L519.166 70.0145C518.371 71.3405 518.437 72.4676 519.763 72.4676C519.814 72.4676 519.876 72.466 519.946 72.4642C520.499 72.4496 521.501 72.4233 521.089 73.1307L520.558 73.9926C520.36 74.3241 520.161 74.5893 519.829 74.7882C519.431 74.9871 519.034 75.1197 518.636 75.1197H515.652C515.495 75.1197 515.379 75.0782 515.239 75.028C515.202 75.0148 515.163 75.001 515.122 74.9871C514.79 74.7882 514.525 74.4567 514.658 73.9926L526.791 52.9086C526.923 52.5771 527.122 52.3782 527.388 52.1793C527.785 51.9141 528.316 51.7815 528.78 51.7815H531.299C531.498 51.7815 531.697 51.7815 531.83 51.9141C532.029 51.9804 532.161 52.113 532.228 52.3119C532.427 52.6434 532.294 52.9086 532.095 53.3064C532.067 53.349 532.05 53.3734 532.035 53.3984C532.015 53.4314 531.997 53.4654 531.956 53.5439L531.954 53.5461C531.88 53.6868 531.731 53.9684 531.366 54.6324C530.636 55.9585 531.498 57.5497 533.023 57.5497H547.013C548.869 57.5497 549.997 56.8204 550.726 55.6933L552.649 52.5108L554.704 48.9305C555.301 48.0023 555.632 46.8751 555.632 45.748C555.632 44.6872 555.367 43.56 554.77 42.6318ZM602.051 40.3112C603.046 40.908 603.841 41.7036 604.372 42.6318C604.902 43.6263 605.234 44.6872 605.167 45.8143C605.167 46.9414 604.902 48.0686 604.305 48.9968L602.184 52.5771L586.006 81.1532C584.879 83.0759 583.288 84.7335 581.299 85.8606C579.31 86.9878 577.122 87.5845 574.867 87.5845H548.745C547.617 87.6508 546.49 87.3193 545.562 86.7888C544.568 86.2584 543.772 85.4628 543.241 84.4683C542.645 83.5401 542.38 82.4129 542.38 81.2858C542.38 80.1587 542.711 79.0978 543.308 78.1033L545.695 73.6611L561.541 46.0132C562.668 44.0242 563.662 42.3003 565.652 41.1732C567.641 40.046 569.099 39.6482 571.42 39.6482L598.869 39.5156C600.195 39.5156 601.057 39.7808 602.051 40.3112ZM581.021 55.0187L581.024 55.0138L581.03 55.0044C581.338 54.4671 581.65 53.9242 581.962 53.3727C582.161 53.0412 582.293 52.776 582.094 52.3782C582.05 52.334 582.006 52.2825 581.962 52.231C581.873 52.1278 581.785 52.0246 581.697 51.9804C581.655 51.9665 581.616 51.9527 581.579 51.9394C581.439 51.8893 581.324 51.8478 581.166 51.8478H578.183C577.785 51.8478 577.387 51.9141 576.989 52.1793C576.658 52.3119 576.392 52.5771 576.26 52.8423C576.193 52.9749 576.127 53.091 576.061 53.207L576.061 53.2073L576.06 53.2092C575.994 53.3245 575.928 53.4399 575.862 53.5716C575.659 53.8556 575.481 54.1644 575.298 54.4829L575.296 54.4851C575.18 54.6864 575.062 54.8915 574.934 55.0966C574.81 55.3085 574.686 55.5252 574.562 55.7441C574.218 56.3468 573.864 56.9661 573.475 57.5497C573.276 58.0136 573.011 58.4112 572.746 58.8088L572.746 58.8095L572.215 59.804C571.619 60.8309 571.023 61.8743 570.427 62.9177L570.425 62.9202C569.828 63.9645 569.232 65.0087 568.635 66.0364C567.906 67.2961 567.176 68.5724 566.447 69.8487C565.718 71.125 564.988 72.4013 564.259 73.6611C564.127 73.86 564.06 73.9926 563.994 74.1915C563.861 74.5893 564.127 74.9871 564.458 75.1197C564.657 75.2523 564.79 75.3186 564.988 75.3186H567.972C568.37 75.3186 568.768 75.186 569.165 74.9871C569.475 74.8016 569.669 74.5584 569.909 74.2575L569.961 74.1915L570.558 73.197C570.897 72.6162 571.235 72.0266 571.577 71.4314C572.172 70.3958 572.777 69.3432 573.409 68.2906C573.596 67.9155 573.817 67.5403 574.024 67.1886L574.024 67.1879L574.025 67.1867C574.11 67.0418 574.193 66.901 574.271 66.7657C575.066 65.3734 575.862 63.981 576.658 62.655C577.586 60.9974 578.514 59.4062 579.442 57.8149C579.948 56.8885 580.48 55.9621 581.021 55.0187ZM60.9314 43.4276C60.2684 42.3005 59.3402 41.306 58.1467 40.643C57.0196 39.9799 55.6936 39.6484 54.3675 39.6484H30.6315C28.112 39.6484 25.5925 40.3115 23.4709 41.6375C21.2829 42.8972 19.4927 44.7537 18.233 46.9416L14.3212 53.7707C13.393 55.4946 13.0615 57.4836 13.4593 59.3401C13.8571 61.2628 14.9179 62.9867 16.4429 64.1801L26.3881 71.7385C27.1175 72.2026 27.6479 72.932 27.8468 73.7276C28.0457 74.5895 27.9131 75.4514 27.449 76.1808C27.1175 76.5786 26.7197 76.9101 26.2555 77.109C25.7914 77.3079 25.261 77.3742 24.7306 77.3079C22.6089 77.3079 21.4818 76.3134 22.3437 74.7221C22.6089 74.1917 22.8078 73.595 22.7415 73.0646C22.7415 72.4679 22.6089 71.8711 22.2774 71.407C21.9459 70.9429 21.5481 70.5451 21.0177 70.2799C20.4873 70.0147 19.8906 69.8821 19.3601 69.8821H8.42034C7.49211 69.9484 6.56388 70.2136 5.76826 70.6777C4.97264 71.1418 4.30962 71.8711 3.84551 72.6668L0.994528 77.6394C0.397811 78.6339 0.066302 79.7611 0 80.9545C0 82.0816 0.265207 83.2088 0.861924 84.2696C1.39234 85.2641 2.25426 86.126 3.24879 86.7228C4.24332 87.2532 5.43675 87.5847 6.56388 87.5847H32.0901C34.5433 87.5847 36.9964 86.988 39.1844 85.7945C41.3724 84.6011 43.1625 82.8109 44.4223 80.6893L47.5384 75.3188C48.7319 73.2635 49.1297 70.744 48.6656 68.3571C48.1352 65.9703 46.8091 63.8486 44.8864 62.4563L36.0682 55.8924C35.6704 55.6935 35.4052 55.4946 35.14 55.1631C34.9411 54.8979 34.7422 54.5001 34.6096 54.1685L34.6096 54.1685C34.5433 53.7707 34.477 53.3729 34.5433 53.0414C34.6096 52.6436 34.7422 52.2458 34.9411 51.9143C35.3389 51.3839 35.8693 50.8534 36.5323 50.5219C37.129 50.1904 37.7921 49.9915 38.5214 49.9252C38.9192 49.8589 39.317 49.9252 39.7148 50.1241C40.1126 50.323 40.3778 50.5882 40.643 50.9198C40.8419 51.3176 40.9082 51.7154 40.9082 52.1132C40.8419 52.5773 40.7093 52.9751 40.4441 53.3066C40.1789 53.7044 40.0463 54.1685 40.1126 54.6327C40.1126 55.0968 40.2452 55.5609 40.5104 56.025C40.7093 56.4228 41.1072 56.7543 41.505 56.9532C41.9691 57.1521 42.4332 57.2847 42.8973 57.2184H54.4338C55.4284 57.2184 56.3566 56.9532 57.1522 56.4891C58.0141 56.025 58.6771 55.2957 59.1413 54.5001L61.064 50.9861C61.727 49.7926 62.0585 48.5329 61.9922 47.2068C61.9922 45.8808 61.5944 44.5548 60.9314 43.4276ZM110.129 42.2342C109.798 41.7038 109.4 41.2397 108.803 40.9082C108.273 40.643 107.676 40.4441 107.08 40.4441H96.8028C95.8746 40.4441 95.0126 40.7093 94.217 41.1734C93.4214 41.6375 92.7584 42.3005 92.2943 43.0961L76.7796 71.0092C76.5144 71.4733 76.1166 71.8048 75.7188 72.07C75.2547 72.3353 74.7243 72.4679 74.2602 72.4679H72.3374C72.1385 72.4679 71.8733 72.4016 71.6744 72.269C71.4755 72.2026 71.3429 72.0037 71.2103 71.8048C71.0777 71.6059 71.0114 71.407 71.0114 71.1418C71.0114 70.8766 71.0777 70.6777 71.2103 70.4788L85.2 45.8145C85.4652 45.2178 85.6641 44.6211 85.6641 44.0244C85.6641 43.3613 85.4652 42.7646 85.1337 42.2342C84.8684 41.7038 84.4043 41.2397 83.8739 40.9745C83.3435 40.643 82.7468 40.4441 82.0838 40.4441H72.1385C71.2103 40.4441 70.282 40.7093 69.4864 41.1734C68.6908 41.7038 68.0278 42.3668 67.63 43.1624L49.1981 75.9156C48.535 77.109 48.2035 78.5013 48.2035 79.8274C48.2035 81.2197 48.535 82.5457 49.2644 83.7392C49.9274 84.9326 50.9882 85.9271 52.1816 86.5901C53.3751 87.2532 54.7011 87.5847 56.0934 87.5847H77.7742C80.4925 87.5847 83.2109 86.8554 85.5978 85.463C87.9846 84.0707 89.9737 82.0153 91.2997 79.6285L110.129 45.7482C110.461 45.2178 110.594 44.6211 110.594 43.9581C110.594 43.3613 110.461 42.7646 110.129 42.2342ZM147.984 41.8364C149.442 42.632 150.636 43.8255 151.498 45.2178C152.293 46.6764 152.757 48.2677 152.757 49.9252C152.757 51.5828 152.36 53.174 151.564 54.6327L144.934 66.567C143.608 68.8876 141.685 70.8766 139.364 72.2026C137.044 73.595 134.392 74.3243 131.74 74.3243H116.424L116.159 74.7221C114.17 78.3687 111.186 81.4186 107.606 83.5403C104.026 85.6619 99.9811 86.7228 95.8041 86.7228C95.2737 86.7228 94.7433 86.5901 94.2792 86.3249C93.8151 86.126 93.4836 85.7282 93.2183 85.2641C92.9531 84.8 92.8205 84.3359 92.7542 83.8055C92.7542 83.2751 92.8868 82.7446 93.152 82.2805L114.965 43.2287C115.429 42.4331 116.026 41.7701 116.822 41.306C117.617 40.8419 118.479 40.5767 119.408 40.5767H143.276C144.934 40.5767 146.591 41.0408 147.984 41.8364ZM129.751 60.9313L132.801 55.8261C132.933 55.4946 133.066 55.1631 133.066 54.8316C133.066 54.5001 132.999 54.1685 132.801 53.9033C132.668 53.5718 132.403 53.3729 132.138 53.174C131.806 53.0414 131.475 52.9088 131.143 52.9088H128.756C128.659 52.9088 128.598 52.9443 128.52 52.9894C128.491 53.0059 128.46 53.0236 128.425 53.0414C128.38 53.0414 128.336 53.1003 128.292 53.1593C128.27 53.1887 128.248 53.2182 128.226 53.2403L123.518 61.1302C123.452 61.1965 123.452 61.3291 123.452 61.3954C123.452 61.528 123.452 61.6607 123.518 61.727L123.717 61.9259C123.784 61.9922 123.916 61.9922 123.982 61.9922H127.762C128.159 61.9922 128.557 61.9259 128.889 61.727C129.287 61.528 129.552 61.2628 129.751 60.9313ZM197.893 42.4994C197.628 41.969 197.164 41.5049 196.633 41.1734C196.103 40.8419 195.506 40.643 194.909 40.5767H164.013C163.217 40.5767 162.355 40.8419 161.626 41.2397C160.896 41.7038 160.3 42.3005 159.836 43.0298L139.282 79.5622C138.884 80.2915 138.752 81.1534 138.752 82.0153C138.752 82.8772 139.017 83.6729 139.415 84.4022C139.879 85.1315 140.476 85.7282 141.205 86.1923C141.934 86.5901 142.796 86.7891 143.658 86.8554H171.969C172.897 86.8554 173.759 86.5901 174.488 86.1923C175.284 85.7282 175.881 85.0652 176.345 84.3359L180.124 77.772C180.456 77.2416 180.588 76.5786 180.588 75.9156C180.522 75.3188 180.323 74.6558 179.991 74.1254C179.66 73.595 179.129 73.1309 178.599 72.8657C178.002 72.6005 177.339 72.4679 176.743 72.5342H159.57L161.427 69.2854H174.289C175.151 69.2854 176.08 69.0202 176.875 68.556C177.671 68.0919 178.334 67.3626 178.798 66.567L180.588 63.3845C180.853 62.8541 180.986 62.2574 180.986 61.727C180.986 61.1302 180.853 60.5335 180.522 60.0694C180.257 59.539 179.793 59.1412 179.328 58.876C178.798 58.5445 178.268 58.4119 177.671 58.4119H167.527L169.383 55.1631H189.207C190.335 55.1631 191.462 54.8316 192.39 54.3011C193.384 53.7044 194.18 52.9088 194.71 51.9806L198.026 46.0797C198.291 45.483 198.423 44.8863 198.423 44.2896C198.423 43.6265 198.224 43.0298 197.893 42.4994ZM234.942 41.7038C236.4 42.5657 237.594 43.7592 238.456 45.2178C239.251 46.6764 239.715 48.334 239.715 49.9915C239.715 51.6491 239.251 53.3066 238.456 54.7653L233.417 63.5171C232.024 65.8377 230.035 67.7604 227.648 69.0865C225.262 70.4125 222.61 71.1418 219.825 71.1418H218.3C218.897 73.9928 219.825 77.3079 220.687 80.1589C220.886 80.8882 220.952 81.6838 220.819 82.4131C220.687 83.2088 220.422 83.9381 219.957 84.5348C219.56 85.1978 218.963 85.7282 218.3 86.126C217.637 86.4575 216.908 86.7228 216.112 86.7891H210.211C209.084 86.7891 207.957 86.5238 207.029 85.8608C206.1 85.1978 205.437 84.2696 205.04 83.2088C204.31 80.0926 203.979 76.8438 203.979 73.6613V73.3961L198.012 84.137C197.547 84.9989 196.951 85.6619 196.155 86.126C195.426 86.5901 194.498 86.7891 193.636 86.7891H186.143C185.282 86.7891 184.42 86.5901 183.624 86.126C182.828 85.6619 182.165 85.0652 181.768 84.2696C181.303 83.474 181.038 82.612 181.038 81.7501C181.038 80.8219 181.237 79.96 181.701 79.1643L201.724 43.0961C202.189 42.3005 202.852 41.6375 203.647 41.1734C204.443 40.7093 205.305 40.4441 206.233 40.4441H230.168C231.825 40.4441 233.483 40.9082 234.942 41.7038ZM217.04 60.9313L220.156 55.7598C220.355 55.4946 220.422 55.1631 220.422 54.8316C220.422 54.5001 220.355 54.1685 220.156 53.837C220.024 53.5718 219.759 53.3066 219.493 53.174C219.162 52.9751 218.83 52.9088 218.499 52.9088H215.979C215.847 52.9088 215.78 52.9088 215.648 52.9751L215.449 53.174L210.808 61.1965C210.742 61.2628 210.741 61.3291 210.741 61.4617C210.741 61.528 210.742 61.6607 210.808 61.727C210.874 61.8596 210.94 61.9259 211.007 61.9922C211.034 61.9922 211.073 62.0035 211.118 62.0169C211.183 62.0357 211.261 62.0585 211.338 62.0585H215.117C215.515 62.0585 215.913 61.9259 216.245 61.727C216.576 61.528 216.841 61.2628 217.04 60.9313Z" fill="url(#paint0_linear_102_9189)"/><path d="M184.927 2.84142C184.498 2.14758 183.903 1.55287 183.176 1.15639C182.483 0.759913 181.657 0.528636 180.831 0.528636H168.936C168.474 0.528636 168.044 0.660796 167.648 0.892073C167.251 1.12335 166.954 1.45375 166.723 1.85023L155.853 21.3106C155.72 21.5419 155.654 21.8062 155.654 22.0705C155.687 22.3348 155.753 22.5661 155.886 22.7974C156.018 23.0287 156.183 23.2269 156.414 23.326C156.645 23.4582 156.91 23.5243 157.174 23.5243C159.256 23.5243 161.271 22.9956 163.055 21.9384C164.839 20.8811 166.326 19.3613 167.317 17.5441L167.449 17.3458H175.082C176.403 17.3458 177.725 16.9824 178.881 16.2886C180.038 15.6278 180.996 14.6366 181.657 13.4802L184.961 7.53306C185.357 6.80618 185.555 6.01323 185.555 5.18723C185.555 4.36124 185.324 3.56829 184.927 2.84142ZM175.61 8.12777L174.09 10.6718C173.991 10.837 173.859 10.9692 173.661 11.0683C173.496 11.1674 173.298 11.2005 173.099 11.2005H171.216C171.183 11.2005 171.117 11.2005 171.084 11.1674C171.051 11.1344 171.018 11.1013 170.985 11.0683C170.952 11.0353 170.952 10.9692 170.952 10.9031C170.952 10.8701 170.952 10.804 170.985 10.7709L173.331 6.83922C173.364 6.80618 173.397 6.7401 173.43 6.7401C173.496 6.70706 173.529 6.67402 173.595 6.67402H174.784C174.949 6.67402 175.115 6.7401 175.28 6.80618C175.412 6.9053 175.544 7.00442 175.61 7.16962C175.709 7.30178 175.742 7.46698 175.742 7.63217C175.742 7.79737 175.676 7.96257 175.61 8.12777Z" fill="white"/><path d="M211.946 1.55287C211.682 1.09031 211.285 0.693835 210.79 0.396477C210.294 0.132159 209.864 0 209.204 0L195.525 0.0660806C194.369 0.0660806 193.642 0.264318 192.651 0.825994C191.66 1.38767 191.164 2.2467 190.602 3.23789L182.706 17.0155L181.516 19.2291C181.219 19.7247 181.054 20.2533 181.054 20.815C181.054 21.3767 181.186 21.9384 181.483 22.4009C181.748 22.8965 182.144 23.293 182.64 23.5573C183.102 23.8216 183.664 23.9868 184.226 23.9538H197.243C198.367 23.9538 199.457 23.6564 200.448 23.0948C201.439 22.5331 202.232 21.7071 202.794 20.7489L210.856 6.50882L211.913 4.72468C212.21 4.26212 212.342 3.70045 212.342 3.13877C212.375 2.5771 212.21 2.04846 211.946 1.55287ZM200.779 6.9053C200.349 7.66521 199.92 8.39209 199.523 9.11896C199.06 9.91191 198.598 10.7049 198.135 11.5309C197.739 12.1917 197.342 12.8855 196.946 13.5793C196.814 13.8106 196.649 14.0749 196.516 14.3392C196.021 15.1652 195.558 15.9912 195.096 16.7842C194.997 16.9494 194.897 17.1146 194.798 17.2798C194.666 17.445 194.567 17.5771 194.402 17.6762C194.204 17.7754 194.005 17.8414 193.807 17.8414H192.32C192.221 17.8414 192.155 17.8084 192.056 17.7423C191.891 17.6762 191.759 17.478 191.825 17.2798C191.858 17.1807 191.891 17.1146 191.957 17.0155C192.684 15.7599 193.411 14.4714 194.138 13.2159C194.732 12.1917 195.327 11.1344 195.922 10.1102L196.186 9.61456C196.318 9.41632 196.45 9.21808 196.549 8.9868C196.814 8.59033 197.045 8.16081 197.276 7.76433C197.442 7.50002 197.574 7.2357 197.739 7.00442C197.805 6.87226 197.871 6.77314 197.937 6.64098C198.003 6.50882 198.135 6.37666 198.301 6.31059C198.499 6.17843 198.697 6.14539 198.895 6.14539H200.382C200.481 6.14539 200.547 6.17843 200.646 6.21147C200.712 6.24451 200.779 6.34363 200.845 6.4097C200.944 6.60794 200.878 6.7401 200.779 6.9053Z" fill="white"/><path d="M240.421 0.396477H237.183H235.432C234.408 0.396477 233.582 0.892073 233.053 1.81718L232.293 3.10573L228.692 9.08592C228.593 9.21808 228.461 9.28416 228.328 9.28416C228.064 9.28416 227.866 8.9868 227.965 8.72248L228.989 6.04627C229.154 5.45155 228.824 4.95596 228.262 4.95596H226.478C225.884 4.95596 225.322 5.22028 224.958 5.71587L222.514 9.01984C222.447 9.11896 222.348 9.152 222.249 9.152C221.952 9.18504 221.754 8.85464 221.886 8.62337L224.298 4.12997L225.091 2.54406C225.586 1.58591 224.892 0.462556 223.835 0.462556H219.639C218.516 0.462556 217.491 1.09031 216.963 2.0815L215.906 4.12997L207.844 19.0309L207.282 20.0221C206.39 21.608 207.547 23.5573 209.331 23.5573L212.701 23.5904C215.311 23.5904 216.467 22.2688 217.227 21.5419L220.762 17.9406C220.994 17.6762 221.423 17.8745 221.357 18.2379L220.961 21.7071C220.729 23.5243 222.613 23.4912 223.637 23.4912H225.124H227.271C228.857 23.4912 230.311 22.6652 231.104 21.3106L233.747 16.8503C234.177 16.1234 234.573 15.3965 235.003 14.7027L235.234 14.2401C235.267 14.141 235.333 14.0419 235.399 13.9428L236.39 12.2247L236.952 11.2665C237.117 10.9692 237.282 10.7049 237.447 10.4405C237.58 10.1762 237.712 9.91191 237.877 9.68064C238.207 9.11896 238.538 8.52425 238.868 7.96257L241.842 2.84142C242.469 1.75111 241.677 0.396477 240.421 0.396477Z" fill="white"/><path d="M265.19 1.48679C265.058 1.22247 264.827 0.991192 264.563 0.825994C264.298 0.660796 264.001 0.561676 263.704 0.528636H248.307C247.911 0.528636 247.481 0.660795 247.118 0.859033C246.754 1.09031 246.457 1.38767 246.226 1.75111L235.983 19.956C235.785 20.3194 235.719 20.7489 235.719 21.1785C235.719 21.608 235.851 22.0044 236.049 22.3679C236.281 22.7313 236.578 23.0287 236.942 23.26C237.305 23.4582 237.734 23.5573 238.164 23.5904H252.272C252.735 23.5904 253.164 23.4582 253.527 23.26C253.924 23.0287 254.221 22.6983 254.453 22.3348L256.336 19.0639C256.501 18.7996 256.567 18.4692 256.567 18.1388C256.534 17.8414 256.435 17.511 256.27 17.2467C256.105 16.9824 255.84 16.7511 255.576 16.619C255.279 16.4868 254.948 16.4207 254.651 16.4538H246.094L247.019 14.8348H253.428C253.858 14.8348 254.32 14.7027 254.717 14.4714C255.113 14.2401 255.444 13.8767 255.675 13.4802L256.567 11.8943C256.699 11.63 256.765 11.3326 256.765 11.0683C256.765 10.7709 256.699 10.4736 256.534 10.2423C256.402 9.97799 256.171 9.77976 255.939 9.6476C255.675 9.4824 255.411 9.41632 255.113 9.41632H250.058L250.983 7.79737H260.862C261.424 7.79737 261.986 7.63217 262.448 7.36786C262.944 7.0705 263.34 6.67402 263.605 6.21147L265.257 3.27093C265.389 2.97358 265.455 2.67622 265.455 2.37886C265.455 2.04846 265.356 1.75111 265.19 1.48679Z" fill="white"/><path d="M287.717 2.84142C287.287 2.11454 286.692 1.51983 285.965 1.09031C285.239 0.693835 284.413 0.462556 283.587 0.462556H271.659C271.197 0.462556 270.767 0.594715 270.371 0.825994C269.974 1.05727 269.644 1.38767 269.413 1.78414L259.435 19.7577C259.203 20.1542 259.104 20.5837 259.104 21.0463C259.104 21.4758 259.236 21.9053 259.468 22.3018C259.666 22.6983 259.996 22.9956 260.393 23.2269C260.789 23.4582 261.219 23.5573 261.648 23.5573H265.382C265.811 23.5573 266.274 23.4582 266.637 23.2269C267.034 22.9956 267.331 22.6652 267.562 22.2357L270.536 16.8833V17.0155C270.536 18.6014 270.701 20.2203 271.065 21.7732C271.263 22.3018 271.593 22.7644 272.056 23.0948C272.518 23.4252 273.08 23.5573 273.642 23.5573H276.582C276.979 23.5243 277.342 23.3921 277.673 23.2269C278.003 23.0287 278.3 22.7644 278.499 22.434C278.73 22.1366 278.862 21.7732 278.928 21.3767C278.994 21.0133 278.961 20.6168 278.862 20.2533C278.432 18.8326 277.97 17.1807 277.673 15.7599H278.432C279.82 15.7599 281.142 15.3965 282.331 14.7357C283.521 14.0749 284.512 13.1168 285.206 11.9604L287.717 7.59914C288.113 6.87226 288.344 6.04627 288.344 5.22028C288.344 4.39428 288.113 3.56829 287.717 2.84142ZM278.598 8.09473L277.045 10.6718C276.946 10.837 276.813 10.9692 276.648 11.0683C276.483 11.1674 276.285 11.2335 276.087 11.2335H274.203C274.137 11.2335 274.071 11.2005 274.038 11.2005C274.005 11.1674 273.972 11.1344 273.939 11.0683C273.906 11.0353 273.906 10.9692 273.906 10.9361C273.906 10.8701 273.906 10.837 273.939 10.804L276.252 6.80618C276.285 6.77314 276.318 6.7401 276.351 6.70706C276.417 6.67402 276.45 6.67402 276.516 6.67402H277.772C277.937 6.67402 278.102 6.70706 278.267 6.80618C278.399 6.87226 278.532 7.00442 278.598 7.13658C278.697 7.30178 278.73 7.46698 278.73 7.63217C278.73 7.79737 278.697 7.96257 278.598 8.09473Z" fill="white"/><path d="M324.248 1.35463C324.083 1.09031 323.885 0.859033 323.587 0.693835C323.323 0.561676 323.026 0.462556 322.728 0.462556H317.607C317.145 0.462556 316.715 0.594715 316.319 0.825994C315.922 1.05727 315.592 1.38767 315.361 1.78414L307.629 15.6939C307.497 15.9251 307.299 16.0903 307.101 16.2225C306.869 16.3547 306.605 16.4207 306.374 16.4207H305.416C305.316 16.4207 305.184 16.3877 305.085 16.3216C304.986 16.2886 304.92 16.1895 304.854 16.0903C304.788 15.9912 304.755 15.8921 304.755 15.7599C304.755 15.6278 304.788 15.5287 304.854 15.4295L311.825 3.13877C311.957 2.84142 312.057 2.54406 312.057 2.2467C312.057 1.9163 311.957 1.61895 311.792 1.35463C311.66 1.09031 311.429 0.859033 311.164 0.726874C310.9 0.561675 310.603 0.462556 310.272 0.462556H305.316C304.854 0.462556 304.391 0.594715 303.995 0.825994C303.598 1.09031 303.268 1.42071 303.07 1.81718L293.885 18.1388C293.554 18.7335 293.389 19.4274 293.389 20.0881C293.389 20.782 293.554 21.4428 293.918 22.0375C294.248 22.6322 294.777 23.1278 295.371 23.4582C295.966 23.7886 296.627 23.9538 297.321 23.9538H308.125C309.479 23.9538 310.834 23.5904 312.023 22.8965C313.213 22.2027 314.204 21.1785 314.865 19.989L324.248 3.10573C324.413 2.84142 324.479 2.54406 324.479 2.21366C324.479 1.9163 324.413 1.61895 324.248 1.35463Z" fill="white"/><path d="M347.176 2.84142C346.746 2.14758 346.151 1.55287 345.425 1.15639C344.731 0.759913 343.905 0.528636 343.079 0.528636H331.184C330.722 0.528636 330.292 0.660796 329.896 0.892073C329.499 1.12335 329.202 1.45375 328.971 1.85023L318.101 21.3106C317.969 21.5419 317.903 21.8062 317.903 22.0705C317.936 22.3348 318.002 22.5661 318.134 22.7974C318.266 23.0287 318.431 23.2269 318.662 23.326C318.894 23.4582 319.158 23.5243 319.422 23.5243C321.504 23.5243 323.519 22.9956 325.303 21.9384C327.088 20.8811 328.574 19.3613 329.566 17.5441L329.698 17.3458H337.33C338.651 17.3458 339.973 16.9824 341.129 16.2886C342.286 15.6278 343.244 14.6366 343.905 13.4802L347.209 7.53306C347.605 6.80618 347.803 6.01323 347.803 5.18723C347.803 4.36124 347.572 3.56829 347.176 2.84142ZM337.859 8.12777L336.339 10.6718C336.24 10.837 336.107 10.9692 335.909 11.0683C335.744 11.1674 335.546 11.2005 335.347 11.2005H333.464C333.431 11.2005 333.365 11.2005 333.332 11.1674C333.299 11.1344 333.266 11.1013 333.233 11.0683C333.2 11.0353 333.2 10.9692 333.2 10.9031C333.2 10.8701 333.2 10.804 333.233 10.7709L335.579 6.83922C335.612 6.80618 335.645 6.7401 335.678 6.7401C335.744 6.70706 335.777 6.67402 335.843 6.67402H337.033C337.198 6.67402 337.363 6.7401 337.528 6.80618C337.66 6.9053 337.792 7.00442 337.859 7.16962C337.958 7.30178 337.991 7.46698 337.991 7.63217C337.991 7.79737 337.925 7.96257 337.859 8.12777Z" fill="white"/><path d="M385.723 0.396477H382.486H380.734C379.71 0.396477 378.884 0.892073 378.356 1.81718L377.596 3.10573L373.994 9.08592C373.895 9.21808 373.763 9.28416 373.631 9.28416C373.367 9.28416 373.168 8.9868 373.268 8.72248L374.292 6.04627C374.457 5.45155 374.127 4.95596 373.565 4.95596H371.781C371.186 4.95596 370.624 5.22028 370.261 5.71587L367.816 9.01984C367.75 9.11896 367.651 9.152 367.552 9.152C367.254 9.18504 367.056 8.85464 367.188 8.62337L369.6 4.12997L370.393 2.54406C370.889 1.58591 370.195 0.462556 369.138 0.462556H364.942C363.818 0.462556 362.794 1.09031 362.265 2.0815L361.208 4.12997L353.146 19.0309L352.585 20.0221C351.693 21.608 352.849 23.5573 354.633 23.5573L358.003 23.5904C360.613 23.5904 361.77 22.2688 362.53 21.5419L366.065 17.9406C366.296 17.6762 366.726 17.8745 366.66 18.2379L366.263 21.7071C366.032 23.5243 367.915 23.4912 368.939 23.4912H370.426H372.574C374.16 23.4912 375.613 22.6652 376.406 21.3106L379.049 16.8503C379.479 16.1234 379.875 15.3965 380.305 14.7027L380.536 14.2401C380.569 14.141 380.635 14.0419 380.701 13.9428L381.693 12.2247L382.254 11.2665C382.42 10.9692 382.585 10.7049 382.75 10.4405C382.882 10.1762 383.014 9.91191 383.179 9.68064C383.51 9.11896 383.84 8.52425 384.171 7.96257L387.144 2.84142C387.772 1.75111 386.979 0.396477 385.723 0.396477Z" fill="white"/><path d="M399.854 0.429517H394.502C393.312 0.429517 392.189 1.09031 391.561 2.14758L388.753 7.10354C388.323 7.83041 387.927 8.52425 387.53 9.21808L387.332 9.58152C387.266 9.71368 387.2 9.87887 387.101 10.011L386.11 11.7291L385.548 12.6873C385.383 12.9846 385.218 13.2489 385.052 13.5463C384.92 13.7776 384.788 14.0419 384.623 14.2732C384.292 14.8348 383.962 15.4295 383.632 15.9912L379.964 22.3018C379.667 22.8635 380.063 23.5573 380.691 23.5573H385.317L387.762 23.5243C388.488 23.5243 389.116 23.1278 389.48 22.5L390.702 20.4516L398.5 6.7401L399.491 4.989L400.978 2.37886C401.473 1.51983 400.845 0.429517 399.854 0.429517Z" fill="white"/><path d="M425.154 1.38767C424.988 1.12335 424.79 0.925112 424.526 0.759913C424.261 0.594715 423.964 0.495597 423.667 0.462556H406.717C406.684 0.462556 406.651 0.462556 406.618 0.462556H405.726C405.693 0.462556 405.693 0.462556 405.66 0.462556C404.107 0.495597 403.413 1.55287 403.413 1.55287L401.068 5.78195C400.605 6.5749 401.2 7.56609 402.092 7.56609H407.676C407.345 8.16081 406.982 8.75552 406.651 9.38328L406.453 9.71368C406.387 9.87887 406.321 10.011 406.222 10.1432L405.231 11.8613L404.669 12.8194C404.504 13.0837 404.372 13.348 404.206 13.6454C404.074 13.8767 403.909 14.141 403.777 14.3723C403.446 14.934 403.116 15.4956 402.786 16.0573L399.151 22.3348C398.854 22.8965 399.25 23.5904 399.878 23.5904H404.471L406.883 23.5573C407.576 23.5243 408.237 23.1608 408.601 22.5331L409.79 20.4846L417.125 7.56609H420.991C421.486 7.56609 422.015 7.4009 422.444 7.16962C422.907 6.87226 423.303 6.47578 423.568 6.01323L425.22 3.13877C425.352 2.87446 425.385 2.5771 425.385 2.27974C425.385 1.94934 425.286 1.65199 425.154 1.38767Z" fill="white"/><path d="M449.293 0.429517H443.974C442.751 0.429517 441.628 1.09031 441.033 2.14758L438.192 7.10354L436.903 9.38328C436.705 9.77976 436.276 10.011 435.846 10.011H434.624C434.26 10.0441 434.029 9.61456 434.227 9.3172L435.681 6.7401L436.672 4.989L438.159 2.37886C438.654 1.51983 438.027 0.429517 437.035 0.429517H431.683C430.461 0.429517 429.37 1.09031 428.742 2.14758L425.934 7.10354C425.505 7.83041 425.108 8.52425 424.712 9.21808C424.646 9.35024 424.579 9.4824 424.513 9.58152C424.447 9.74672 424.381 9.87887 424.282 10.011L423.291 11.7291L422.729 12.6873L422.234 13.5463C422.101 13.7776 421.969 14.0419 421.804 14.2732C421.474 14.8348 421.143 15.4295 420.813 15.9912L417.146 22.3348C416.848 22.8635 417.245 23.5573 417.872 23.5573H422.498L424.943 23.5243C425.67 23.5243 426.298 23.1278 426.661 22.5331L427.883 20.4516L431.121 14.7357C431.32 14.4053 431.65 14.2071 432.046 14.2071H433.269C433.665 14.2071 433.897 14.6036 433.698 14.934C433.5 15.2974 433.302 15.6278 433.071 15.9912L429.436 22.3348C429.106 22.8635 429.502 23.5573 430.13 23.5573H434.789L437.201 23.5243C437.928 23.5243 438.588 23.1278 438.952 22.5331L440.141 20.4516L447.939 6.7401L448.93 4.989L450.417 2.37886C450.912 1.51983 450.284 0.429517 449.293 0.429517Z" fill="white"/><defs><linearGradient id="paint0_linear_102_9189" x1="-8.16021" y1="29.6251" x2="320.475" y2="370.263" gradientUnits="userSpaceOnUse"><stop stop-color="#26FF55"/><stop offset="0.523569" stop-color="#268AFF"/><stop offset="1" stop-color="#FC55FF"/></linearGradient></defs></svg>