<svg width="40" height="40" viewBox="0 0 40 40" fill="none" xmlns="http://www.w3.org/2000/svg"><g clip-path="url(#clip0_2869_23287)"><path fill-rule="evenodd" clip-rule="evenodd" d="M27.0636 12.8563C31.3692 12.8563 35.1275 15.8138 36.1946 20.0417L39.2135 32.0027C39.8979 34.7143 38.284 37.4748 35.6087 38.1685C35.2038 38.2735 34.7875 38.3266 34.3695 38.3266H19.7577C16.9963 38.3266 14.7577 36.0576 14.7577 33.2587C14.7577 32.8351 14.8101 32.4131 14.9137 32.0027L17.9326 20.0417C18.9997 15.8138 22.758 12.8563 27.0636 12.8563Z" fill="#363636"/><path fill-rule="evenodd" clip-rule="evenodd" d="M27.0636 16.1314C31.3854 16.1314 34.889 19.6825 34.889 24.0631V28.0955C34.889 32.476 31.3854 36.0271 27.0636 36.0271C22.7417 36.0271 19.2382 32.476 19.2382 28.0955V24.0631C19.2382 19.6825 22.7417 16.1314 27.0636 16.1314Z" fill="#A56644"/><path d="M31.3651 13.9833C31.6207 13.9833 31.828 14.1934 31.828 14.4525C31.828 18.3102 28.7426 21.4374 24.9365 21.4374H17.7937C17.538 21.4374 17.3308 21.2274 17.3308 20.9683V14.4525C17.3308 14.1934 17.538 13.9833 17.7937 13.9833H31.3651Z" fill="#363636"/><path d="M30.1271 27.2184C30.3827 27.2184 30.5899 27.4284 30.5899 27.6875V28.199C30.5899 30.173 29.0111 31.7732 27.0636 31.7732C25.116 31.7732 23.5372 30.173 23.5372 28.199V27.6875C23.5372 27.4284 23.7445 27.2184 24.0001 27.2184H30.1271Z" fill="white"/><path d="M30.2857 22.9529C30.2857 22.4376 29.8735 22.0198 29.3651 22.0198C28.8566 22.0198 28.4445 22.4376 28.4445 22.9529V24.8651C28.4445 25.3805 28.8566 25.7982 29.3651 25.7982C29.8735 25.7982 30.2857 25.3805 30.2857 24.8651V22.9529Z" fill="#7B482D"/><path d="M25.6826 22.9529C25.6826 22.4376 25.2704 22.0198 24.7619 22.0198C24.2535 22.0198 23.8413 22.4376 23.8413 22.9529V24.8651C23.8413 25.3805 24.2535 25.7982 24.7619 25.7982C25.2704 25.7982 25.6826 25.3805 25.6826 24.8651V22.9529Z" fill="#7B482D"/><path d="M35.6508 27.6875C37.1762 27.6875 38.4127 26.4187 38.4127 24.8536C38.4127 23.2885 37.1762 22.0198 35.6508 22.0198C34.1255 22.0198 32.8889 23.2885 32.8889 24.8536C32.8889 26.4187 34.1255 27.6875 35.6508 27.6875Z" fill="#A56644"/><path d="M18.4763 27.6875C20.0016 27.6875 21.2382 26.4187 21.2382 24.8536C21.2382 23.2885 20.0016 22.0198 18.4763 22.0198C16.9509 22.0198 15.7144 23.2885 15.7144 24.8536C15.7144 26.4187 16.9509 27.6875 18.4763 27.6875Z" fill="#A56644"/><path d="M12.3239 2.25481C17.266 2.25481 21.2724 6.3156 21.2724 11.3249V15.4932C21.2724 15.7523 21.0652 15.9623 20.8096 15.9623L6.55997 15.9606L4.92626 15.8177C4.74588 15.8019 4.59113 15.681 4.5302 15.5081L3.19912 11.7331L3.17212 11.5752V11.3249C3.17212 6.3156 7.17853 2.25481 12.1207 2.25481H12.3239Z" fill="#FFD900"/><path d="M20.8096 19.1855C22.335 19.1855 23.5715 17.9457 23.5715 16.4162C23.5715 14.8868 22.335 13.647 20.8096 13.647C19.2843 13.647 18.0477 14.8868 18.0477 16.4162C18.0477 17.9457 19.2843 19.1855 20.8096 19.1855Z" fill="#FFAD92"/><path d="M3.63495 19.1855C5.16031 19.1855 6.39686 17.9457 6.39686 16.4162C6.39686 14.8868 5.16031 13.647 3.63495 13.647C2.10959 13.647 0.873047 14.8868 0.873047 16.4162C0.873047 17.9457 2.10959 19.1855 3.63495 19.1855Z" fill="#FFAD92"/><path fill-rule="evenodd" clip-rule="evenodd" d="M8.25399 8H16.1905C18.3207 8 20.0476 9.75034 20.0476 11.9095V19.4077C20.0476 23.7883 16.5441 27.3394 12.2222 27.3394C7.9004 27.3394 4.39685 23.7883 4.39685 19.4077V11.9095C4.39685 9.75034 6.12375 8 8.25399 8Z" fill="#FFAD92"/><path d="M15.4445 14.5802C15.4445 14.0648 15.0324 13.647 14.5239 13.647C14.0155 13.647 13.6033 14.0648 13.6033 14.5802V16.4062C13.6033 16.9215 14.0155 17.3393 14.5239 17.3393C15.0324 17.3393 15.4445 16.9215 15.4445 16.4062V14.5802Z" fill="#C97356"/><path d="M10.8413 14.5802C10.8413 14.0648 10.4291 13.647 9.92063 13.647C9.41218 13.647 9 14.0648 9 14.5802V16.4062C9 16.9215 9.41218 17.3393 9.92063 17.3393C10.4291 17.3393 10.8413 16.9215 10.8413 16.4062V14.5802Z" fill="#C97356"/><path d="M16.3651 6.71638C16.6207 6.71638 16.828 6.92643 16.828 7.18553C16.828 11.523 13.3588 15.0393 9.0794 15.0393H8.00004C3.72062 15.0393 0.251465 11.523 0.251465 7.18553C0.251465 6.92643 0.458693 6.71638 0.714322 6.71638H16.3651Z" fill="#FFD900"/><path d="M8.6074 19.8874C8.32846 19.6047 8.32846 19.1463 8.6074 18.8636C8.88635 18.5808 9.33861 18.5808 9.61756 18.8636C11.0123 20.2772 13.2736 20.2772 14.6683 18.8636C14.9473 18.5808 15.3995 18.5808 15.6785 18.8636C15.9574 19.1463 15.9574 19.6047 15.6785 19.8874C13.7258 21.8666 10.56 21.8666 8.6074 19.8874Z" fill="#DE8A6E"/></g><defs><clipPath id="clip0_2869_23287"><rect width="40" height="36.9231" fill="white" transform="translate(0 2)"/></clipPath></defs></svg>