<svg width="40" height="40" viewBox="0 0 40 40" fill="none" xmlns="http://www.w3.org/2000/svg"><path d="M36.2139 20.3825C36.2139 19.2633 36.1147 18.2008 35.9447 17.1666H19.9363V23.5558H29.1022C28.6913 25.6525 27.4872 27.4234 25.7022 28.6275V32.8776H31.1705C34.3722 29.9167 36.2139 25.5534 36.2139 20.3825Z" fill="#4285F4"/><path d="M19.9363 37.0001C24.5263 37.0001 28.3655 35.4701 31.1705 32.8776L25.7022 28.6276C24.1721 29.6476 22.2313 30.2709 19.9363 30.2709C15.5021 30.2709 11.7479 27.2817 10.402 23.2442H4.76367V27.6217C7.55453 33.1751 13.2921 37.0001 19.9363 37.0001Z" fill="#34A853"/><path d="M10.402 23.2442C10.0479 22.2242 9.86371 21.1333 9.86371 20C9.86371 18.8666 10.062 17.7758 10.402 16.7558V12.3783H4.76367C3.60199 14.6733 2.93616 17.2516 2.93616 20C2.93616 22.7483 3.60199 25.3267 4.76367 27.6217L10.402 23.2442Z" fill="#FBBC05"/><path d="M19.9363 9.72909C22.4438 9.72909 24.6821 10.5933 26.453 12.2791L31.298 7.43408C28.3655 4.68572 24.5263 2.99988 19.9363 2.99988C13.2921 2.99988 7.55453 6.82491 4.76367 12.3783L10.402 16.7558C11.7479 12.7183 15.5021 9.72909 19.9363 9.72909Z" fill="#EA4335"/></svg>