<svg width="40" height="40" viewBox="0 0 40 40" fill="none" xmlns="http://www.w3.org/2000/svg"><path d="M26.5062 14.3499C21.4328 14.3499 19.9491 14.3551 19.6607 14.379C18.6196 14.4656 17.9717 14.6295 17.2659 14.9809C16.722 15.251 16.293 15.5641 15.8696 16.003C15.0986 16.8034 14.6313 17.788 14.4621 18.9585C14.3799 19.5267 14.356 19.6426 14.3511 22.5451C14.3492 23.5126 14.3511 24.7858 14.3511 26.4937C14.3511 31.5629 14.3567 33.0452 14.381 33.333C14.4651 34.3461 14.624 34.9835 14.9605 35.6807C15.6035 37.0153 16.8315 38.0172 18.2782 38.391C18.7792 38.52 19.3325 38.591 20.0427 38.6246C20.3437 38.6377 23.411 38.6471 26.4802 38.6471C29.5494 38.6471 32.6185 38.6433 32.912 38.6284C33.7344 38.5897 34.212 38.5256 34.7401 38.3891C36.1961 38.0134 37.4018 37.0265 38.0578 35.6732C38.3877 34.9928 38.555 34.3311 38.6307 33.371C38.6472 33.1616 38.6541 29.8238 38.6541 26.4905C38.6541 23.1567 38.6466 19.8251 38.6302 19.6157C38.5535 18.64 38.3862 17.9839 38.0457 17.2905C37.7662 16.7228 37.456 16.2989 37.0055 15.8654C36.2016 15.0975 35.2184 14.6303 34.0468 14.4613C33.4791 14.3792 33.366 14.3549 30.4613 14.3499H26.5062Z" fill="url(#paint0_radial_2493_22665)"/><path d="M26.5062 14.3499C21.4328 14.3499 19.9491 14.3551 19.6607 14.379C18.6196 14.4656 17.9717 14.6295 17.2659 14.9809C16.722 15.251 16.293 15.5641 15.8696 16.003C15.0986 16.8034 14.6313 17.788 14.4621 18.9585C14.3799 19.5267 14.356 19.6426 14.3511 22.5451C14.3492 23.5126 14.3511 24.7858 14.3511 26.4937C14.3511 31.5629 14.3567 33.0452 14.381 33.333C14.4651 34.3461 14.624 34.9835 14.9605 35.6807C15.6035 37.0153 16.8315 38.0172 18.2782 38.391C18.7792 38.52 19.3325 38.591 20.0427 38.6246C20.3437 38.6377 23.411 38.6471 26.4802 38.6471C29.5494 38.6471 32.6185 38.6433 32.912 38.6284C33.7344 38.5897 34.212 38.5256 34.7401 38.3891C36.1961 38.0134 37.4018 37.0265 38.0578 35.6732C38.3877 34.9928 38.555 34.3311 38.6307 33.371C38.6472 33.1616 38.6541 29.8238 38.6541 26.4905C38.6541 23.1567 38.6466 19.8251 38.6302 19.6157C38.5535 18.64 38.3862 17.9839 38.0457 17.2905C37.7662 16.7228 37.456 16.2989 37.0055 15.8654C36.2016 15.0975 35.2184 14.6303 34.0468 14.4613C33.4791 14.3792 33.366 14.3549 30.4613 14.3499H26.5062Z" fill="url(#paint1_radial_2493_22665)"/><path d="M26.5005 17.5275C24.0639 17.5275 23.7581 17.5381 22.8011 17.5817C21.8459 17.6254 21.194 17.7766 20.6235 17.9985C20.0334 18.2277 19.5328 18.5342 19.0341 19.0331C18.5351 19.5318 18.2285 20.0324 17.9986 20.6223C17.7762 21.1929 17.6248 21.8451 17.5818 22.7998C17.539 23.7569 17.5278 24.0628 17.5278 26.4995C17.5278 28.9362 17.5386 29.241 17.582 30.198C17.6259 31.1532 17.7771 31.8052 17.9988 32.3756C18.2282 32.9657 18.5347 33.4663 19.0336 33.965C19.5321 34.4641 20.0326 34.7713 20.6224 35.0005C21.1932 35.2224 21.8454 35.3736 22.8003 35.4173C23.7574 35.4609 24.063 35.4715 26.4994 35.4715C28.9363 35.4715 29.2411 35.4609 30.1981 35.4173C31.1533 35.3736 31.806 35.2224 32.3769 35.0005C32.9668 34.7713 33.4666 34.4641 33.9651 33.965C34.4642 33.4663 34.7707 32.9657 35.0006 32.3758C35.2212 31.8052 35.3726 31.153 35.4174 30.1982C35.4604 29.2412 35.4716 28.9362 35.4716 26.4995C35.4716 24.0628 35.4604 23.7571 35.4174 22.8C35.3726 21.8449 35.2212 21.1929 35.0006 20.6224C34.7707 20.0324 34.4642 19.5318 33.9651 19.0331C33.466 18.534 32.967 18.2275 32.3763 17.9985C31.8043 17.7766 31.152 17.6254 30.1968 17.5817C29.2398 17.5381 28.9351 17.5275 26.4977 17.5275H26.5005ZM25.6957 19.1443C25.9346 19.1439 26.2011 19.1443 26.5005 19.1443C28.8961 19.1443 29.18 19.1529 30.126 19.1959C31.0008 19.2359 31.4755 19.3821 31.7918 19.5049C32.2105 19.6675 32.509 19.8619 32.8228 20.1759C33.1369 20.4899 33.3313 20.789 33.4942 21.2077C33.6171 21.5236 33.7634 21.9983 33.8032 22.8731C33.8462 23.8189 33.8556 24.103 33.8556 26.4974C33.8556 28.8919 33.8462 29.176 33.8032 30.1218C33.7632 30.9965 33.6171 31.4713 33.4942 31.7872C33.3316 32.2059 33.1369 32.504 32.8228 32.8179C32.5088 33.1319 32.2107 33.3263 31.7918 33.4889C31.4759 33.6123 31.0008 33.7581 30.126 33.7981C29.1802 33.8411 28.8961 33.8504 26.5005 33.8504C24.1048 33.8504 23.8209 33.8411 22.8751 33.7981C22.0003 33.7577 21.5256 33.6115 21.2091 33.4887C20.7904 33.3261 20.4913 33.1317 20.1773 32.8177C19.8633 32.5037 19.6689 32.2053 19.5059 31.7865C19.3831 31.4706 19.2368 30.9958 19.1969 30.121C19.154 29.1752 19.1454 28.8911 19.1454 26.4952C19.1454 24.0993 19.154 23.8167 19.1969 22.8709C19.2369 21.9961 19.3831 21.5213 19.5059 21.2051C19.6685 20.7864 19.8633 20.4873 20.1773 20.1733C20.4913 19.8593 20.7904 19.6649 21.2091 19.5019C21.5254 19.3785 22.0003 19.2327 22.8751 19.1925C23.7028 19.1551 24.0235 19.1439 25.6957 19.1421V19.1443ZM31.2897 20.634C30.6953 20.634 30.2131 21.1157 30.2131 21.7103C30.2131 22.3047 30.6953 22.787 31.2897 22.787C31.8841 22.787 32.3664 22.3047 32.3664 21.7103C32.3664 21.1159 31.8841 20.6337 31.2897 20.6337V20.634ZM26.5005 21.892C23.956 21.892 21.893 23.955 21.893 26.4995C21.893 29.044 23.956 31.1061 26.5005 31.1061C29.0451 31.1061 31.1073 29.044 31.1073 26.4995C31.1073 23.955 29.0449 21.892 26.5004 21.892H26.5005ZM26.5005 23.5088C28.1521 23.5088 29.4912 24.8477 29.4912 26.4995C29.4912 28.1511 28.1521 29.4902 26.5005 29.4902C24.8488 29.4902 23.5099 28.1511 23.5099 26.4995C23.5099 24.8477 24.8488 23.5088 26.5005 23.5088Z" fill="white"/><path d="M13.9986 27.0028C21.1791 27.0028 27 21.1818 27 14.0014C27 6.82093 21.1791 1.00002 13.9986 1.00002C6.81812 1.00002 0.997192 6.82093 0.997192 14.0014C0.997192 21.1818 6.81812 27.0028 13.9986 27.0028Z" fill="#1977F3"/><path d="M19.0595 17.7605L19.6354 14.0014H16.0299V11.5624C16.0299 10.5349 16.5327 9.5311 18.1489 9.5311H19.789V6.33149C19.789 6.33149 18.3007 6.07735 16.8782 6.07735C13.909 6.07735 11.9673 7.87644 11.9673 11.1364V14.0014H8.66528V17.7605H11.9673V26.8456C12.6291 26.9498 13.3075 27.0028 13.9986 27.0028C14.6897 27.0028 15.368 26.9479 16.0299 26.8456V17.7605H19.0595Z" fill="white"/><defs><radialGradient id="paint0_radial_2493_22665" cx="0" cy="0" r="1" gradientUnits="userSpaceOnUse" gradientTransform="translate(20.806 40.5185) rotate(-90) scale(24.0803 22.4027)"><stop stop-color="#FFDD55"/><stop offset="0.1" stop-color="#FFDD55"/><stop offset="0.5" stop-color="#FF543E"/><stop offset="1" stop-color="#C837AB"/></radialGradient><radialGradient id="paint1_radial_2493_22665" cx="0" cy="0" r="1" gradientUnits="userSpaceOnUse" gradientTransform="translate(10.2793 16.1002) rotate(78.6776) scale(10.7641 44.3813)"><stop stop-color="#3771C8"/><stop offset="0.128" stop-color="#3771C8"/><stop offset="1" stop-color="#6600FF" stop-opacity="0"/></radialGradient></defs></svg>