<svg width="40" height="40" viewBox="0 0 40 40" fill="none" xmlns="http://www.w3.org/2000/svg"><mask id="mask0_2485_22742" style="mask-type:alpha" maskUnits="userSpaceOnUse" x="6" y="7" width="32" height="30"><path d="M36.1052 7.08144H8.10519C7.05875 7.08144 6.21045 7.92974 6.21045 8.97617V34.6604C6.21045 35.7068 7.05875 36.5551 8.10519 36.5551H36.1052C37.1516 36.5551 37.9999 35.7068 37.9999 34.6604V8.97617C37.9999 7.92974 37.1516 7.08144 36.1052 7.08144Z" fill="white"/></mask><g mask="url(#mask0_2485_22742)"><path d="M36.1052 7.08144H8.10519C7.05875 7.08144 6.21045 7.92974 6.21045 8.97617V34.6604C6.21045 35.7068 7.05875 36.5551 8.10519 36.5551H36.1052C37.1516 36.5551 37.9999 35.7068 37.9999 34.6604V8.97617C37.9999 7.92974 37.1516 7.08144 36.1052 7.08144Z" fill="#A0A0A0"/><path fill-rule="evenodd" clip-rule="evenodd" d="M38.0001 38.0288V34.4499C38.0001 35.6478 37.0575 36.6189 35.8948 36.5551C34.7321 36.6189 33.7896 35.6478 33.7896 34.4499V38.0288" fill="#D2D2D2"/></g><path fill-rule="evenodd" clip-rule="evenodd" d="M3.47368 4.76564H32.3158C33.1297 4.76564 33.7895 5.42544 33.7895 6.23933V36.5551H3.47368C2.65979 36.5551 2 35.8953 2 35.0814V6.23933C2 5.42544 2.65979 4.76564 3.47368 4.76564Z" fill="#D2D2D2"/><path opacity="0.592857" d="M30.74 7.16565H5.05263C4.47128 7.16565 4 7.63692 4 8.21828V11.94C4 12.5214 4.47128 13 5.05263 13H30.74C31.3214 13 31.79 12.5214 31.79 11.94V8.21828C31.79 7.63692 31.3214 7.16565 30.74 7.16565Z" fill="#A0A0A0"/><path opacity="0.592857" d="M11.37 15H4.63158C4.28277 15 4 15.2828 4 15.6316V33.3158C4 33.6646 4.28277 33.9474 4.63158 33.9474H11.37C11.7188 33.9474 12 33.6646 12 33.3158V15.6316C12 15.2828 11.7188 15 11.37 15Z" fill="#A0A0A0"/><path opacity="0.592857" fill-rule="evenodd" clip-rule="evenodd" d="M24.4916 27.2947H31.26C31.6088 27.2947 31.79 27.5775 31.79 27.9263V33.3158C31.79 33.6646 31.6088 33.9474 31.26 33.9474H24.4916C24.1428 33.9474 23.86 33.6646 23.86 33.3158V27.9263C23.86 27.5775 24.1428 27.2947 24.4916 27.2947Z" fill="#A0A0A0"/><path opacity="0.592857" fill-rule="evenodd" clip-rule="evenodd" d="M14.6316 27.2947H21.4C21.7488 27.2947 21.93 27.5775 21.93 27.9263V33.3158C21.93 33.6646 21.7488 33.9474 21.4 33.9474H14.6316C14.2828 33.9474 14 33.6646 14 33.3158V27.9263C14 27.5775 14.2828 27.2947 14.6316 27.2947Z" fill="#A0A0A0"/><path d="M31.15 15H14.6316C14.2828 15 14 15.2828 14 15.6316V24.66C14 25.0088 14.2828 25.3 14.6316 25.3H31.15C31.4988 25.3 31.79 25.0088 31.79 24.66V15.6316C31.79 15.2828 31.4988 15 31.15 15Z" fill="white"/></svg>