<svg width="40" height="40" viewBox="0 0 40 40" fill="none" xmlns="http://www.w3.org/2000/svg"><path d="M19.9171 36.6731C29.0796 36.6731 36.5073 29.2454 36.5073 20.0829C36.5073 10.9204 29.0796 3.49271 19.9171 3.49271C10.7546 3.49271 3.3269 10.9204 3.3269 20.0829C3.3269 29.2454 10.7546 36.6731 19.9171 36.6731Z" fill="#CE82FF"/><path d="M12.9318 21.8292C13.8963 21.8292 14.6782 21.0474 14.6782 20.0829C14.6782 19.1184 13.8963 18.3366 12.9318 18.3366C11.9673 18.3366 11.1855 19.1184 11.1855 20.0829C11.1855 21.0474 11.9673 21.8292 12.9318 21.8292Z" fill="white"/><path d="M19.9171 21.8292C20.8816 21.8292 21.6635 21.0474 21.6635 20.0829C21.6635 19.1184 20.8816 18.3366 19.9171 18.3366C18.9526 18.3366 18.1708 19.1184 18.1708 20.0829C18.1708 21.0474 18.9526 21.8292 19.9171 21.8292Z" fill="white"/><path d="M26.9025 21.8292C27.867 21.8292 28.6489 21.0474 28.6489 20.0829C28.6489 19.1184 27.867 18.3366 26.9025 18.3366C25.9381 18.3366 25.1562 19.1184 25.1562 20.0829C25.1562 21.0474 25.9381 21.8292 26.9025 21.8292Z" fill="white"/></svg>