<svg width="40" height="40" viewBox="0 0 40 40" fill="none" xmlns="http://www.w3.org/2000/svg"><path fill-rule="evenodd" clip-rule="evenodd" d="M27.3591 6.44185L33.4158 12.4985L13.6172 32.2971L5.13358 35.7957C4.71455 35.9685 4.23478 35.7688 4.06198 35.3498C3.97934 35.1494 3.97934 34.9245 4.06198 34.7241L7.5605 26.2405L27.3591 6.44185Z" fill="#FFD300"/><path fill-rule="evenodd" clip-rule="evenodd" d="M13.731 32.1833L13.6172 32.2971L5.13358 35.7956C4.71455 35.9684 4.23478 35.7688 4.06198 35.3498C3.97934 35.1494 3.97934 34.9244 4.06198 34.724L7.5605 26.2404L7.69713 26.1038L12.6089 27.2127L13.731 32.1833Z" fill="#FFF2B4"/><path fill-rule="evenodd" clip-rule="evenodd" d="M7.43284 34.8475L5.13358 35.7957C4.71455 35.9685 4.23478 35.7688 4.06198 35.3498C3.97934 35.1494 3.97934 34.9245 4.06198 34.7241L5.01016 32.4248L7.43284 34.8475Z" fill="#363636"/><path fill-rule="evenodd" clip-rule="evenodd" d="M31.7395 4.46496L35.5193 8.24473C36.1603 8.88574 36.1603 9.92501 35.5193 10.566L30.6303 15.4551C29.9893 16.0961 28.95 16.0961 28.309 15.4551L24.5292 11.6753C23.8882 11.0343 23.8882 9.99502 24.5292 9.35402L29.4183 4.46496C30.0593 3.82396 31.0985 3.82396 31.7395 4.46496Z" fill="#FFAFAF"/><path fill-rule="evenodd" clip-rule="evenodd" d="M26.7499 7.02218L32.7996 13.0719C33.1201 13.3924 33.1201 13.912 32.7996 14.2325L28.4138 18.6183C28.0933 18.9388 27.5737 18.9388 27.2532 18.6183L21.2035 12.5686C20.883 12.2481 20.883 11.7285 21.2035 11.4079L25.5893 7.02218C25.9098 6.70167 26.4294 6.70167 26.7499 7.02218Z" fill="#8E8E8E"/><path opacity="0.364286" fill-rule="evenodd" clip-rule="evenodd" d="M26.7512 7.83635L27.8978 8.98302C28.2183 9.30352 28.2183 9.82316 27.8978 10.1437L24.4 13.6415C24.0795 13.962 23.5598 13.962 23.2393 13.6415L22.0927 12.4948C21.7722 12.1743 21.7722 11.6547 22.0927 11.3342L25.5905 7.83635C25.911 7.51585 26.4307 7.51585 26.7512 7.83635Z" fill="white"/></svg>