<svg width="40" height="40" viewBox="0 0 40 40" fill="none" xmlns="http://www.w3.org/2000/svg"><path d="M16.4079 16.1777V14.7748C15.921 14.6977 15.4291 14.6555 14.9361 14.6484C10.1633 14.6382 5.93773 17.7312 4.50444 22.2838C3.07115 26.8363 4.76298 31.7921 8.68062 34.5179C7.24401 32.9804 6.28311 31.06 5.91392 28.9884C5.54472 26.9168 5.783 24.7827 6.59999 22.8435C7.41699 20.9044 8.77778 19.2432 10.5181 18.0604C12.2584 16.8776 14.3039 16.2238 16.4076 16.1779L16.4079 16.1777Z" fill="#25F4EE"/><path d="M16.6725 32.0688C19.341 32.0651 21.5345 29.9629 21.6514 27.2969V3.50637H25.9976C25.9089 3.00924 25.8666 2.50495 25.8712 2L19.9264 2V25.7676C19.8276 28.4471 17.6288 30.5696 14.9476 30.5739C14.1463 30.5671 13.3581 30.3701 12.6479 29.999C13.1082 30.6367 13.7127 31.1566 14.4121 31.5163C15.1115 31.876 15.886 32.0653 16.6725 32.0688ZM34.1156 11.5782V10.2559C32.516 10.2565 30.9519 9.78453 29.6197 8.89918C30.7876 10.2568 32.3658 11.1973 34.1156 11.5782Z" fill="#25F4EE"/><path d="M29.6198 8.89917C28.3073 7.40476 27.5839 5.48365 27.5845 3.49475H25.9976C26.2026 4.59439 26.6294 5.64073 27.2522 6.56992C27.875 7.4991 28.6805 8.29164 29.6198 8.89917ZM14.9361 20.5932C13.8231 20.5988 12.744 20.9764 11.8702 21.6658C10.9965 22.3553 10.3783 23.317 10.1139 24.3982C9.84959 25.4793 9.95424 26.6178 10.4113 27.6326C10.8683 28.6475 11.6515 29.4804 12.6363 29.999C12.0978 29.2555 11.7754 28.3777 11.7046 27.4626C11.6338 26.5474 11.8173 25.6304 12.235 24.813C12.6526 23.9956 13.2881 23.3095 14.0712 22.8307C14.8543 22.3518 15.7546 22.0987 16.6725 22.0994C17.1715 22.1059 17.6671 22.1836 18.1442 22.3301V16.2812C17.6569 16.2082 17.1652 16.1697 16.6725 16.1663H16.4079V20.7656C15.9283 20.6369 15.4325 20.5789 14.9361 20.5932Z" fill="#FE2C55"/><path d="M34.1157 11.5782V16.1777C31.1544 16.1719 28.2701 15.2346 25.8712 13.4985V25.5835C25.8585 31.6138 20.9664 36.4957 14.9361 36.4957C12.6965 36.4997 10.5108 35.8087 8.6806 34.5179C10.173 36.1232 12.1143 37.2418 14.2516 37.7281C16.3888 38.2143 18.623 38.0457 20.663 37.2441C22.703 36.4425 24.4544 35.0452 25.689 33.2341C26.9235 31.423 27.5841 29.2821 27.5846 27.0902V15.0394C29.9915 16.7641 32.8794 17.6892 35.8404 17.6841V11.7617C35.2607 11.76 34.6827 11.6985 34.1157 11.5782Z" fill="#FE2C55"/><path d="M25.871 25.5835V13.4985C28.2772 15.2247 31.1656 16.15 34.1269 16.1432V11.5438C32.3774 11.1744 30.7955 10.2462 29.6196 8.89917C28.6804 8.29164 27.8748 7.4991 27.252 6.56992C26.6293 5.64073 26.2024 4.59439 25.9974 3.49475H21.6512V27.2972C21.6089 28.3332 21.2449 29.3304 20.6098 30.1501C19.9746 30.9697 19.1 31.5712 18.1073 31.8709C17.1146 32.1706 16.0532 32.1536 15.0706 31.8223C14.088 31.491 13.233 30.8618 12.6245 30.0222C11.6395 29.5037 10.8562 28.6708 10.399 27.6559C9.94188 26.641 9.83717 25.5024 10.1015 24.4211C10.3659 23.3399 10.9842 22.3781 11.8581 21.6886C12.7319 20.9991 13.8112 20.6216 14.9243 20.6161C15.4235 20.6206 15.9194 20.6981 16.3961 20.8461V16.2467C14.2811 16.2825 12.2222 16.933 10.4704 18.1188C8.7187 19.3045 7.34982 20.9744 6.53069 22.9247C5.71156 24.875 5.47759 27.0215 5.85729 29.1025C6.237 31.1834 7.21397 33.109 8.6691 34.6443C10.5173 35.8926 12.7061 36.5392 14.9359 36.4957C20.9662 36.4957 25.8583 31.6138 25.871 25.5835Z" fill="black"/></svg>