<svg width="40" height="40" viewBox="0 0 40 40" fill="none" xmlns="http://www.w3.org/2000/svg"><path d="M22.069 29.1997H17.931V33.8067H22.069V29.1997Z" fill="#3F3F3F"/><path d="M1.14754 4.99988H38.8525C39.4862 4.99988 40 5.50857 40 6.13607V28.8637C40 29.4912 39.4862 29.9999 38.8525 29.9999H1.14754C0.513772 29.9999 0 29.4912 0 28.8637V6.13607C0 5.50857 0.513772 4.99988 1.14754 4.99988Z" fill="#3F3F3F"/><mask id="mask0_2483_22674" style="mask-type:alpha" maskUnits="userSpaceOnUse" x="2" y="6" width="36" height="22"><path d="M37.3176 6.99988H2.68242C2.30553 6.99988 2 7.3003 2 7.67089V27.3289C2 27.6995 2.30553 27.9999 2.68242 27.9999H37.3176C37.6945 27.9999 38 27.6995 38 27.3289V7.67089C38 7.3003 37.6945 6.99988 37.3176 6.99988Z" fill="white"/></mask><g mask="url(#mask0_2483_22674)"><path d="M37.3176 6.99988H2.68242C2.30553 6.99988 2 7.3003 2 7.67089V27.3289C2 27.6995 2.30553 27.9999 2.68242 27.9999H37.3176C37.6945 27.9999 38 27.6995 38 27.3289V7.67089C38 7.3003 37.6945 6.99988 37.3176 6.99988Z" fill="#4F4F4F"/><path d="M38.595 5.10768C40.3024 4.08181 40.8548 1.86609 39.829 0.158745C38.8031 -1.5486 36.5874 -2.10104 34.88 -1.07516L-8.21255 24.8175C-9.9199 25.8433 -10.4723 28.0591 -9.44646 29.7664C-8.42059 31.4737 -6.20487 32.0262 -4.49752 31.0003L38.595 5.10768Z" fill="#525252"/><path d="M46.3938 16.0917C49.0841 14.4752 49.9547 10.9837 48.3381 8.29336C46.7216 5.603 43.2302 4.73249 40.5398 6.34902L3.81744 28.414C1.12707 30.0306 0.256564 33.522 1.8731 36.2124C3.48963 38.9027 6.98106 39.7732 9.67142 38.1567L46.3938 16.0917Z" fill="#525252"/></g><path d="M29.6533 32.4245H10.3467C9.83782 32.4245 9.42529 32.8722 9.42529 33.4245C9.42529 33.9768 9.83782 34.4245 10.3467 34.4245H29.6533C30.1622 34.4245 30.5747 33.9768 30.5747 33.4245C30.5747 32.8722 30.1622 32.4245 29.6533 32.4245Z" fill="#3F3F3F"/></svg>