<svg width="40" height="40" viewBox="0 0 40 40" fill="none" xmlns="http://www.w3.org/2000/svg"><g clip-path="url(#clip0_2483_22627)"><path d="M20.856 33.757L12.6364 33.6069C9.97512 33.5546 7.30717 33.659 4.69803 33.1172C0.728926 32.3077 0.44774 28.3383 0.153509 25.0087C-0.251912 20.3278 -0.0949613 15.5619 0.670119 10.92C1.10203 8.31542 2.80179 6.76125 5.4304 6.59213C14.3039 5.97835 23.2364 6.05109 32.0902 6.33744C33.0253 6.36369 33.9668 6.50716 34.8888 6.67048C39.4402 7.467 39.5512 11.9652 39.8462 15.7518C40.1404 19.5775 40.0162 23.4229 39.4538 27.2225C39.0026 30.3686 38.1394 33.0068 34.4964 33.2615C29.9321 33.5945 25.4724 33.8626 20.8952 33.7773C20.8954 33.757 20.8691 33.757 20.856 33.757ZM16.0237 25.7922C19.4634 23.8204 22.8374 21.8815 26.2574 19.923C22.8113 17.9512 19.4437 16.0123 16.0237 14.0538V25.7922Z" fill="#FF0000"/><path d="M16.0237 25.7922C19.4634 23.8204 22.8374 21.8815 26.2574 19.923C22.8113 17.9512 19.4437 16.0123 16.0237 14.0538V25.7922Z" fill="white"/></g><defs><clipPath id="clip0_2483_22627"><rect width="40" height="40" fill="white"/></clipPath></defs></svg>